<?xml version="1.0" encoding="UTF-8" standalone="no"?>
<!-- Created with Inkscape (http://www.inkscape.org/) -->

<svg
   xmlns:dc="http://purl.org/dc/elements/1.1/"
   xmlns:cc="http://creativecommons.org/ns#"
   xmlns:rdf="http://www.w3.org/1999/02/22-rdf-syntax-ns#"
   xmlns:svg="http://www.w3.org/2000/svg"
   xmlns="http://www.w3.org/2000/svg"
   xmlns:sodipodi="http://sodipodi.sourceforge.net/DTD/sodipodi-0.dtd"
   xmlns:inkscape="http://www.inkscape.org/namespaces/inkscape"
   width="274.54706"
   height="79.754021"
   id="svg3106"
   version="1.1"
   inkscape:version="0.48.3.1 r9886"
   sodipodi:docname="New document 2">
  <defs
     id="defs3108" />
  <sodipodi:namedview
     id="base"
     pagecolor="#ffffff"
     bordercolor="#666666"
     borderopacity="1.0"
     inkscape:pageopacity="0.0"
     inkscape:pageshadow="2"
     inkscape:zoom="0.35"
     inkscape:cx="287.13063"
     inkscape:cy="-85.33705"
     inkscape:document-units="px"
     inkscape:current-layer="layer1"
     showgrid="false"
     fit-margin-top="0"
     fit-margin-left="0"
     fit-margin-right="0"
     fit-margin-bottom="0"
     inkscape:window-width="1317"
     inkscape:window-height="744"
     inkscape:window-x="49"
     inkscape:window-y="24"
     inkscape:window-maximized="1" />
  <metadata
     id="metadata3111">
    <rdf:RDF>
      <cc:Work
         rdf:about="">
        <dc:format>image/svg+xml</dc:format>
        <dc:type
           rdf:resource="http://purl.org/dc/dcmitype/StillImage" />
        <dc:title></dc:title>
      </cc:Work>
    </rdf:RDF>
  </metadata>
  <g
     inkscape:label="Layer 1"
     inkscape:groupmode="layer"
     id="layer1"
     transform="translate(-87.869366,-367.27111)">
    <g
       id="g3750"
       transform="translate(-329.30271,-234.81408)">
      <text
         sodipodi:linespacing="83.999997%"
         id="text2991-97-9-1"
         y="633.66919"
         x="418.31488"
         style="font-size:48px;font-style:normal;font-variant:normal;font-weight:bold;font-stretch:normal;line-height:83.99999738%;letter-spacing:0px;word-spacing:0px;fill:#000000;fill-opacity:1;stroke:none;font-family:Linux Libertine Capitals O;-inkscape-font-specification:Linux Libertine Capitals O Bold"
         xml:space="preserve"><tspan
           style="font-size:48px;font-style:normal;font-variant:normal;font-weight:bold;font-stretch:normal;line-height:83.99999738%;font-family:Linux Libertine Capitals O;-inkscape-font-specification:Linux Libertine Capitals O Bold"
           id="tspan2995-0-0-2"
           y="633.66919"
           x="418.31488"
           sodipodi:role="line">La Colombe</tspan><tspan
           style="font-size:48px;font-style:normal;font-variant:normal;font-weight:bold;font-stretch:normal;line-height:83.99999738%;font-family:Linux Libertine Capitals O;-inkscape-font-specification:Linux Libertine Capitals O Bold"
           id="tspan2999-3-7-2"
           y="673.9892"
           x="418.31488"
           sodipodi:role="line">      Calvary</tspan></text>
      <path
         inkscape:connector-curvature="0"
         id="path3050-3-0-7"
         d="m 439.80544,640.91973 c -0.1741,0.0327 -0.33098,0.48474 -0.47955,1.35369 -0.13308,0.77828 -0.6404,2.55076 -1.12909,3.93966 -0.48869,1.3889 -1.32484,3.81736 -1.85753,5.39048 l -0.96519,2.85914 -0.67988,0.12749 c -0.37326,0.07 -1.52447,0.0675 -2.55562,-0.006 -4.93436,-0.35219 -7.48813,-1.62435 -7.78827,-3.87289 -0.0841,-0.6299 -0.19499,-0.81617 -0.51599,-0.86198 -0.3459,-0.0493 -0.4306,0.067 -0.54026,0.75272 -0.20359,1.27322 -1.29026,3.41926 -3.2537,6.43458 -2.13385,3.277 -2.68855,4.5425 -2.83486,6.47707 -0.36442,4.81842 2.26384,8.18519 7.26015,9.29373 1.80982,0.40154 5.37645,0.57712 7.39977,0.36422 l 1.60257,-0.16997 0,0.99554 c 0,2.13299 0.9151,3.74359 2.46456,4.35245 0.79606,0.31279 1.10855,1.08359 0.99554,2.44635 -0.13309,1.60502 0.26756,1.36558 1.29299,-0.77094 1.33463,-2.78075 2.52116,-3.92627 4.97769,-4.79558 1.14612,-0.40559 1.59647,-0.44228 5.61509,-0.46135 4.23021,-0.0201 4.42134,-0.0387 5.90647,-0.5524 5.79443,-2.00425 9.57803,-6.93105 10.69597,-13.91933 0.4184,-2.61553 0.43877,-2.52528 -0.49778,-2.52528 -0.66773,0 -0.95015,0.13774 -1.74219,0.84986 -2.04755,1.84092 -3.73926,2.24448 -7.99466,1.88788 -2.97944,-0.24969 -5.14166,-0.12735 -6.43459,0.36422 -0.28252,0.10741 -0.51597,0.13548 -0.51597,0.0668 0,-0.47273 3.40355,-6.14595 6.07035,-10.12537 0.74006,-1.10433 1.31613,-2.03221 1.28085,-2.05785 -0.0352,-0.0255 -0.37717,-0.23216 -0.75879,-0.46135 l -0.69203,-0.41887 -1.02588,0.39459 c -6.35391,2.41428 -11.08685,0.21975 -12.62028,-5.84576 -0.26332,-1.04154 -0.48257,-1.54245 -0.67989,-1.50545 z m 0.72238,8.14035 c 0.0704,-0.007 0.13858,0.0393 0.23067,0.10927 1.34389,1.02103 4.42182,1.78656 7.81862,1.94252 2.50056,0.1148 2.57161,0.12644 2.4585,0.52206 -0.23328,0.81593 -2.14526,3.78328 -4.52242,7.01124 -1.33752,1.81627 -2.77836,3.85168 -3.19908,4.52243 -0.74463,1.18719 -0.75573,1.2297 -0.41279,1.60865 0.19377,0.2141 0.64303,0.57359 1.00162,0.79521 l 0.65559,0.40065 1.01375,-0.95305 c 0.55657,-0.5244 1.42226,-1.15148 1.93038,-1.39618 1.95278,-0.9404 2.63465,-1.02631 9.17839,-1.17158 3.41882,-0.0759 6.23886,-0.12474 6.26461,-0.10926 0.0258,0.0155 -0.0902,0.54503 -0.25496,1.17765 -1.02074,3.9189 -5.20866,7.84765 -9.84005,9.22695 -1.56713,0.4667 -3.13376,0.53743 -6.17356,0.29137 -3.31767,-0.26854 -5.26499,0.42841 -7.40584,2.64061 -0.6026,0.62269 -1.12707,1.12773 -1.16552,1.12301 -0.0384,-0.004 -0.38628,-0.17305 -0.77092,-0.37636 -1.35475,-0.71604 -1.717,-2.0245 -1.09874,-3.98822 0.58116,-1.84587 0.59027,-2.02189 0.085,-2.2521 -0.35769,-0.16299 -0.74268,-0.12055 -1.74219,0.18817 -3.0414,0.93939 -6.33107,1.2414 -8.52886,0.78309 -2.33376,-0.48669 -4.49507,-1.98013 -5.46332,-3.7697 -0.62333,-1.15209 -0.60508,-4.46413 0.0365,-6.50743 0.3635,-1.15783 2.42478,-6.11847 2.64668,-6.36781 0.0286,-0.0321 0.33479,0.20079 0.67987,0.51598 1.30129,1.18854 4.42097,1.54934 10.76882,1.2505 l 3.28407,-0.15783 0.25496,-1.06839 c 0.14029,-0.58761 0.6777,-2.21323 1.18979,-3.61793 0.67196,-1.84329 0.86918,-2.35237 1.08052,-2.37352 z"
         style="fill:#000000" />
    </g>
  </g>
</svg>
