<?xml version="1.0" encoding="UTF-8" standalone="no"?>
<!-- Created with Inkscape (http://www.inkscape.org/) -->
<svg xmlns:dc="http://purl.org/dc/elements/1.1/" xmlns:cc="http://creativecommons.org/ns#" xmlns:rdf="http://www.w3.org/1999/02/22-rdf-syntax-ns#" xmlns:svg="http://www.w3.org/2000/svg" xmlns="http://www.w3.org/2000/svg" xmlns:xlink="http://www.w3.org/1999/xlink" xmlns:sodipodi="http://sodipodi.sourceforge.net/DTD/sodipodi-0.dtd" xmlns:inkscape="http://www.inkscape.org/namespaces/inkscape" width="1052.3622" height="744.09448" id="svg2" version="1.1" inkscape:version="0.48.0 r9654" sodipodi:docname="beholdachild.svg">
  <defs id="defs4">
    <linearGradient inkscape:collect="always" id="linearGradient3756">
      <stop style="stop-color:#000001;stop-opacity:1" offset="0" id="stop3758"/>
      <stop id="stop3764" offset="0.40138343" style="stop-color:#00002b;stop-opacity:1"/>
      <stop style="stop-color:#000087;stop-opacity:1" offset="1" id="stop3766"/>
      <stop id="stop3768" offset="1" style="stop-color:#004ac9;stop-opacity:1"/>
      <stop style="stop-color:#0000ff;stop-opacity:0.36274511" offset="1" id="stop3760"/>
    </linearGradient>
    <inkscape:perspective id="perspective9" inkscape:persp3d-origin="372.04724 : 350.78739 : 1" inkscape:vp_z="744.09448 : 526.18109 : 1" inkscape:vp_y="0 : 1000 : 0" inkscape:vp_x="0 : 526.18109 : 1" sodipodi:type="inkscape:persp3d"/>
    <filter id="filter4357" inkscape:label="Combined lighting" inkscape:menu="Bevels" inkscape:menu-tooltip="Basic specular bevel to use for building textures" color-interpolation-filters="sRGB">
      <feGaussianBlur id="feGaussianBlur4359" stdDeviation="6" in="SourceGraphic" result="result0"/>
      <feDiffuseLighting id="feDiffuseLighting4361" lighting-color="rgb(255,255,255)" diffuseConstant="1" surfaceScale="4" result="result5">
        <feDistantLight id="feDistantLight4363" elevation="45" azimuth="235"/>
      </feDiffuseLighting>
      <feComposite id="feComposite4365" in2="SourceGraphic" k1="1.4" in="result5" result="fbSourceGraphic" operator="arithmetic"/>
      <feGaussianBlur id="feGaussianBlur4367" result="result0" in="fbSourceGraphic" stdDeviation="6"/>
      <feSpecularLighting id="feSpecularLighting4369" specularExponent="25" specularConstant="1" surfaceScale="4" lighting-color="rgb(255,255,255)" result="result1" in="result0">
        <feDistantLight id="feDistantLight4371" azimuth="235" elevation="45"/>
      </feSpecularLighting>
      <feComposite id="feComposite4373" in2="result91" k3="1" k2="1" operator="arithmetic" result="result4" in="fbSourceGraphic"/>
      <feComposite id="feComposite4375" in2="SourceGraphic" operator="in" result="result2" in="result4"/>
    </filter>
    <filter inkscape:collect="always" id="filter4451">
      <feGaussianBlur inkscape:collect="always" stdDeviation="8.3589911" id="feGaussianBlur4453"/>
    </filter>
    <filter inkscape:collect="always" id="filter4455">
      <feGaussianBlur inkscape:collect="always" stdDeviation="8.3589911" id="feGaussianBlur4457"/>
    </filter>
    <filter inkscape:collect="always" id="filter4459">
      <feGaussianBlur inkscape:collect="always" stdDeviation="8.3589911" id="feGaussianBlur4461"/>
    </filter>
    <filter inkscape:collect="always" id="filter4626">
      <feGaussianBlur inkscape:collect="always" stdDeviation="4.6025001" id="feGaussianBlur4628"/>
    </filter>
    <linearGradient inkscape:collect="always" xlink:href="#linearGradient3756" id="linearGradient4643" gradientUnits="userSpaceOnUse" x1="518.86139" y1="308.26682" x2="518.86139" y2="1054.7008"/>
    <linearGradient inkscape:collect="always" xlink:href="#linearGradient3756" id="linearGradient4656" gradientUnits="userSpaceOnUse" x1="518.86139" y1="308.26682" x2="518.86139" y2="1054.7008"/>
    <linearGradient inkscape:collect="always" xlink:href="#linearGradient3756" id="linearGradient4667" gradientUnits="userSpaceOnUse" x1="518.86139" y1="308.26682" x2="518.86139" y2="1054.7008"/>
  </defs>
  <sodipodi:namedview id="base" pagecolor="#ffffff" bordercolor="#666666" borderopacity="1.0" inkscape:pageopacity="0.0" inkscape:pageshadow="2" inkscape:zoom="0.53516536" inkscape:cx="519.18384" inkscape:cy="232.46281" inkscape:document-units="px" inkscape:current-layer="layer1" showgrid="false" inkscape:window-width="1440" inkscape:window-height="853" inkscape:window-x="-4" inkscape:window-y="-4" inkscape:window-maximized="1" showguides="true" inkscape:guide-bbox="true"/>
  <metadata id="metadata7">
    <rdf:RDF>
      <cc:Work rdf:about="">
        <dc:format>image/svg+xml</dc:format>
        <dc:type rdf:resource="http://purl.org/dc/dcmitype/StillImage"/>
        <dc:title/>
      </cc:Work>
    </rdf:RDF>
  </metadata>
  <g inkscape:label="Layer 1" inkscape:groupmode="layer" id="layer1" transform="translate(0,-308.2677)">
    <g id="g4669">
      <path transform="matrix(0.81642153,0,0,0.79288583,85.046206,166.67905)" d="m 31.1875,292.03125 c -25.9661172,0 -47.40625,21.44013 -47.40625,47.40625 l 0,680.5625 c 0,25.9661 21.4401328,47.4062 47.40625,47.4062 l 990.6875,0 c 25.9661,0 47.4062,-21.4401 47.4062,-47.4062 l 0,-680.5625 c 0,-25.96612 -21.4401,-47.40625 -47.4062,-47.40625 l -990.6875,0 z" id="path4353" style="fill:url(#linearGradient4667);fill-opacity:1;stroke:none" inkscape:original="M 31.1875 309.4375 C 14.5675 309.4375 1.1875 322.8175 1.1875 339.4375 L 1.1875 1020 C 1.1875 1036.62 14.5675 1050 31.1875 1050 L 1021.875 1050 C 1038.495 1050 1051.875 1036.62 1051.875 1020 L 1051.875 339.4375 C 1051.875 322.8175 1038.495 309.4375 1021.875 309.4375 L 31.1875 309.4375 z " inkscape:radius="17.413954" sodipodi:type="inkscape:offset"/>
      <path transform="matrix(0.82612111,0,0,0.7816014,81.538115,172.83545)" sodipodi:nodetypes="ccccccccccccc" inkscape:connector-curvature="0" id="path3770" d="M 780.37406,595.05836 540.12447,482.08713 537.25618,899.47034 523.72856,482.3423 248.07301,615.02166 515.28119,469.88951 351.80673,380.08056 l 171.42301,77.10101 5.5674,-132.81275 10.82851,132.55759 128.55564,-59.74325 -120.10827,72.19603 z" style="fill:#ffffff;fill-opacity:1;stroke:none;filter:url(#filter4459)"/>
      <path transform="matrix(0.82612111,0,0,0.7816014,81.538115,172.83545)" sodipodi:nodetypes="ccccccccccccc" inkscape:connector-curvature="0" id="path3821" d="M 537.72912,845.99684 524.06585,480.99701 306.87966,585.54487 517.6822,469.70437 350.51119,381.53799 l 173.75891,76.99166 6.38364,-120.78117 6.58789,120.8991 112.23467,-50.30326 -105.85102,61.5959 187.21793,102.31715 -193.80583,-91.14243 z" style="fill:#ffffff;fill-opacity:1;stroke:none;filter:url(#filter4455)"/>
      <path transform="matrix(0.82612111,0,0,0.7816014,81.538115,172.83545)" sodipodi:nodetypes="ccccccccccccc" inkscape:connector-curvature="0" id="path3880" d="M 540.0876,864.40223 523.04772,482.53403 273.91489,606.74035 515.44168,469.35998 298.67873,349.66808 l 224.36899,106.51786 7.60603,-138.9467 7.60604,138.9467 127.67208,-58.16941 -120.06604,71.34345 204.97064,110.25806 -212.57668,-97.08401 z" style="opacity:0.75;fill:#ffffff;fill-opacity:1;stroke:none;filter:url(#filter4451)"/>
      <path inkscape:connector-curvature="0" id="path3889" d="m 236.97331,882.91924 c -0.47053,0.01 -0.86811,0.0227 -1.08429,0.0749 -0.97419,0.23551 -1.74031,0.83042 -2.73652,1.01105 -0.89106,0.16156 -1.84387,0 -2.76235,0 -0.45924,0 -0.95751,-0.14895 -1.36826,0 -6.30524,2.28642 5.8229,-0.42783 -4.15642,1.98465 -0.87134,0.21065 -1.84548,-0.16156 -2.73653,0 -1.40887,0.25544 -2.72173,0.75561 -4.1306,1.01105 -0.44552,0.0808 -0.98333,-0.14895 -1.39408,0 -0.5809,0.21065 -0.78738,0.78169 -1.36827,0.99233 -1.10217,0.39967 -3.02844,-0.39967 -4.1306,0 -0.41076,0.14895 0.32472,0.75682 0,0.99232 -0.32473,0.23551 -0.98333,-0.14894 -1.39408,0 -0.5809,0.21065 -0.78737,0.8004 -1.36826,1.01106 -0.41076,0.14894 -0.9326,-0.10534 -1.36827,0 -0.97418,0.2355 -1.78815,0.75682 -2.76234,0.99231 -0.43567,0.10533 -0.93259,-0.10534 -1.36826,0 -0.97419,0.23552 -1.78815,0.77554 -2.76235,1.01105 -1.307,0.31597 -2.79403,-0.24234 -4.1306,0 -0.99622,0.18062 -1.76612,0.8117 -2.76234,0.99233 -0.89106,0.16155 -1.89101,-0.21064 -2.76235,0 -0.61613,0.14895 -0.78736,0.78169 -1.36826,0.99232 -0.41075,0.14896 -0.90903,0 -1.36826,0 -0.91848,0 -1.891,-0.21063 -2.76234,0 -1.57083,0.37974 -1.63704,2.60561 -4.13061,2.00338 -0.43567,0.10533 -0.93485,0 -1.39408,0 l -4.1306,0 c -0.45925,0 -1.04354,-0.23551 -1.36827,0 -0.32473,0.23551 0.41076,0.84336 0,0.99232 -0.8215,0.2979 -1.891,-0.21064 -2.76234,0 -0.61613,0.14894 -0.78737,0.8004 -1.36826,1.01105 -0.41076,0.14895 -0.93485,0 -1.39408,0 -0.91848,0 -1.86519,-0.21065 -2.73653,0 -1.57083,0.37975 -1.63703,2.60561 -4.1306,2.00337 -0.89246,0.21575 -9.52101,0 -11.02356,0 l -23.44118,0 c -1.64721,0 -7.36204,-0.21738 -8.26122,0 -9.97931,2.41248 2.17463,-0.30177 -4.1306,1.98465 -0.82151,0.29789 -1.94084,-0.29789 -2.76234,0 -0.5809,0.21065 -0.75214,0.8621 -1.36827,1.01105 -0.87134,0.21064 -1.84387,0 -2.76234,0 -0.45924,0.33305 -0.78737,0.78168 -1.36826,0.99233 -0.82151,0.29789 -1.94084,-0.2979 -2.76234,0 -1.8549,0.67262 -0.90745,1.33073 -2.76235,2.00337 -0.41075,0.14895 -0.957507,-0.14895 -1.368257,0 -0.58089,0.21064 -0.75213,0.84338 -1.368263,0.99233 -0.87134,0.21065 -1.891003,-0.21064 -2.762343,0 -0.61613,0.14895 -0.787369,0.78168 -1.368263,0.99232 -0.410753,0.14894 -0.934844,0 -1.394079,0 l -2.736527,0 c -5.586329,0 -6.766717,0.0297 -8.674271,-0.33702 l 0,80.8839 c 0,9.95767 11.0535,17.97414 24.783633,17.97414 l 818.42785,0 c 13.73014,0 24.78364,-8.01647 24.78364,-17.97414 l 0,-85.52723 -9.29386,0 -4.13061,0 c -0.91848,0 -1.87125,-0.16155 -2.76238,0 -0.99614,0.18062 -1.74031,0.8117 -2.73645,0.99233 -0.89113,0.16155 -1.8439,0 -2.76238,0 l -2.76239,0 -9.62943,0 -2.76238,0 c -0.91832,0 -1.87125,-0.16156 -2.7623,0 -0.99622,0.18063 -1.74031,0.8117 -2.73653,0.99232 -0.89104,0.16155 -1.84387,0 -2.76234,0 -1.43271,0 -7.17748,-0.19649 -8.26121,0 -0.99623,0.18062 -1.76612,0.83042 -2.76235,1.01105 -1.08373,0.19649 -6.8285,0 -8.26121,0 l -19.28476,0 -17.9165,0 -6.89295,0 c -0.91847,0 -1.89101,0.21064 -2.76234,0 -0.61613,-0.14895 -0.75214,-0.8621 -1.36827,-1.01105 -0.87133,-0.21064 -1.87129,0.16155 -2.76234,0 -0.99623,-0.18062 -1.78815,-0.75681 -2.76234,-0.99232 -0.74563,-0.18026 -5.02952,0 -5.49887,0 l -12.39182,0 c -2.12787,0 -4.9454,0.2354 -6.89294,0 -1.43248,-0.17315 -2.70658,-0.78577 -4.13061,-0.99233 -1.12786,-0.16359 -6.18617,0.2563 -6.89295,0 -2.02716,-0.73509 -1.49665,-1.00119 -1.23918,-1.06722 -0.17382,0.0161 -0.82803,0.0562 -2.89142,0.0562 l -19.28477,0 c -0.49883,0 -7.32175,0.17502 -8.28703,0 -0.99622,-0.18061 -1.74029,-0.81169 -2.73652,-0.99232 -0.89105,-0.16156 -1.84387,0 -2.76234,0 l -2.76235,0 -11.02355,0 -4.13061,0 c -0.91847,0 -1.84548,0.16156 -2.73652,0 -0.99623,-0.18062 -1.76613,-0.8117 -2.76234,-0.99232 -1.81143,-0.32844 -5.18192,0.41364 -6.89295,0 -0.61613,-0.14896 -0.78737,-0.8004 -1.36827,-1.01105 -0.41074,-0.14894 -0.93483,0 -1.39407,0 l -1.36827,0 -6.89295,0 c -0.45924,0 -0.92273,0.0808 -1.36826,0 -1.40887,-0.25544 -2.75289,-0.65927 -4.1306,-0.99232 -0.45924,-0.33306 -0.77795,-0.86211 -1.39408,-1.01106 -0.87135,-0.21064 -1.84387,0 -2.76235,0 -1.3777,0 -2.77965,0.19595 -4.1306,0 -1.00694,-0.14605 -1.7403,-0.81169 -2.73653,-0.99232 -0.89104,-0.16156 -1.87129,0.16156 -2.76234,0 -0.99622,-0.18062 -1.78816,-0.75682 -2.76234,-0.99232 -0.43567,-0.10534 -0.93259,0.10533 -1.36827,0 -0.97418,-0.23552 -1.76611,-0.83043 -2.76234,-1.01106 -0.89104,-0.16154 -1.8617,0.13064 -2.76234,0 -1.42404,-0.20654 -2.70658,-0.78576 -4.13061,-0.99232 -0.90063,-0.13063 -1.97231,0.3695 -2.73652,0 -0.85443,-0.4131 -0.66796,-1.47676 -1.39408,-2.00338 -0.32473,-0.2355 -0.95751,0.14897 -1.36827,0 -0.58089,-0.21064 -0.81319,-0.78167 -1.39407,-0.99231 -0.41076,-0.14897 -0.95751,0.14893 -1.36827,0 -0.58088,-0.21065 -0.78737,-0.8004 -1.36826,-1.01106 -1.10217,-0.39967 -3.02845,0.39968 -4.13061,0 -0.58089,-0.21064 -0.81318,-0.78168 -1.39408,-0.99232 -0.41074,-0.14895 -0.90903,0 -1.36826,0 l -1.36826,0 -5.52469,0 -2.76234,0 c -0.45923,0 -0.93259,0.10534 -1.36826,0 -0.97419,-0.23551 -1.78816,-0.75683 -2.76234,-0.99232 -0.7773,-0.18793 -3.22531,0 -4.13061,0 l -11.02355,0 -20.65303,0 -12.41763,0 c -1.12794,0 -5.9745,-0.21581 -6.86714,0 -0.97418,0.23549 -1.78815,0.75681 -2.76234,0.99232 -0.96875,0.23419 -6.5153,-0.27388 -6.89295,0 -0.32473,0.23552 0.32473,0.75682 0,0.99232 -0.64945,0.47102 -2.11288,-0.47101 -2.76234,0 -0.32472,0.23552 0.41076,0.86209 0,1.01106 -1.23226,0.44684 -2.89835,-0.44685 -4.1306,0 -0.5809,0.21064 -1.07782,0.57102 -1.36827,0.99231 -0.20538,0.29791 0.41075,0.8621 0,1.01106 -0.82151,0.29789 -1.94084,-0.2979 -2.76234,0 -0.41076,0.14894 0.38211,0.80757 0,0.99232 -1.20833,0.58422 -2.78224,0.60117 -4.13061,0.99232 -0.95344,0.2766 -1.90792,0.59794 -2.76234,1.01106 -0.54038,0.26127 -0.75213,0.84338 -1.36826,0.99232 -0.87134,0.21064 -1.8713,-0.16156 -2.76234,0 -1.99245,0.36125 -3.5505,1.53236 -5.49887,2.00338 -1.23994,0.29974 -2.89067,-0.29976 -4.13061,0 -0.61613,0.14894 -0.81318,0.78168 -1.39408,0.99232 -0.41075,0.14896 -0.93259,-0.10534 -1.36826,0 -9.97931,2.41248 2.17463,-0.28305 -4.13061,2.00337 -0.41074,0.14895 -0.93484,0 -1.39408,0 l -2.73652,0 -6.89295,0 -9.65529,0 -2.73653,0 c -0.45924,0 -0.9584,0.10534 -1.39408,0 -0.97418,-0.23552 -1.78815,-0.75682 -2.76234,-0.99232 -0.86472,-0.20905 -4.38977,0 -5.49887,0 l -11.02355,0 -38.56953,0 -11.02355,0 c -1.43043,0 -4.35831,0.21147 -5.52469,0 -1.40887,-0.25545 -2.70657,-0.8045 -4.1306,-1.01105 -2.16716,-0.31435 -4.74979,0.38857 -6.89295,0 -6.65288,-1.20625 0.0708,-0.47986 -4.13061,-2.00338 -0.41074,-0.14895 -1.04353,0.23551 -1.36826,0 -2.85053,-2.06732 4.36543,0.0945 -1.36826,-1.98464 -0.82151,-0.2979 -2.11289,0.471 -2.76235,0 -0.32473,-0.23552 0.32473,-0.77554 0,-1.01106 -0.32473,-0.2355 -0.90902,0 -1.36826,0 -1.80298,0 -5.33915,0.22539 -6.89295,0 -1.42402,-0.20654 -2.72173,-0.73688 -4.1306,-0.99232 -0.89105,-0.16156 -1.84388,0 -2.76235,0 l -6.89294,0 -1.36827,0 c -0.45923,0 -1.06934,-0.23551 -1.39408,0 -0.32473,0.23551 0.32474,0.75682 0,0.99232 -0.32473,0.23552 -0.93259,-0.10533 -1.36826,0 -0.97419,0.23552 -1.78815,0.77554 -2.76234,1.01106 -0.43567,0.10533 -1.04353,-0.23552 -1.36826,0 -0.32473,0.2355 0.32473,0.75681 0,0.99232 -0.64946,0.47102 -1.94084,-0.2979 -2.76235,0 -0.58089,0.21064 -0.75213,0.84337 -1.36826,0.99232 -0.87133,0.21064 -1.94083,-0.29789 -2.76234,0 -0.41075,0.14895 0.41075,0.8621 0,1.01106 -0.82151,0.2979 -1.84387,0 -2.76234,0 l -2.73653,0 -13.7859,0 -2.76234,0 c -0.91847,0 -1.87129,-0.16156 -2.76234,0 -0.99622,0.18062 -1.76234,0.75681 -2.73653,0.99232 -1.30701,0.31597 -2.8236,-0.31598 -4.1306,0 -0.61614,0.14896 -0.81319,0.80039 -1.39408,1.01105 -0.41076,0.14894 -0.93259,-0.10534 -1.36827,0 -0.97418,0.2355 -1.78815,0.7568 -2.76234,0.99232 -0.40914,0.0989 -6.61017,0.10257 -6.89295,0 -0.58089,-0.21064 -0.78737,-0.78168 -1.36826,-0.99232 -0.41076,-0.14896 -0.90902,0 -1.36826,0 -2.12788,0 -4.9454,0.23541 -6.89295,0 -1.43247,-0.17316 -2.69813,-0.8379 -4.13061,-1.01105 -3.24204,-0.39188 -7.85542,0.45953 -11.02355,0 -1.00694,-0.14605 -1.74943,-0.86989 -2.76234,-0.99232 -2.71792,-0.32854 -5.50579,0 -8.26121,0 -0.45924,0 -0.94856,0.0808 -1.39408,0 -1.40888,-0.25544 -2.70658,-0.8045 -4.13061,-1.01106 -0.90064,-0.13064 -1.86519,0.21064 -2.73652,0 -0.61613,-0.14895 -0.81319,-0.78168 -1.39408,-0.99232 -0.90214,-0.32714 -5.67033,0.29556 -6.89295,0 -0.97419,-0.23551 -1.74031,-0.81171 -2.73653,-0.99232 -0.89105,-0.16156 -1.84387,0 -2.76234,0 l -8.26121,0 c -0.45924,0 -0.95841,0.10533 -1.39408,0 -0.97419,-0.23552 -1.76234,-0.77554 -2.73653,-1.01106 -0.43566,-0.10533 -0.98332,0.14897 -1.39408,0 -0.58089,-0.21063 -0.78737,-0.78168 -1.36826,-0.99232 -0.39431,-0.14298 -6.15696,0 -6.89295,0 -0.45924,0 -1.04353,0.23551 -1.36826,0 -0.72611,-0.52661 -0.53966,-1.59026 -1.39408,-2.00338 -0.76422,-0.36948 -2.08706,0.47103 -2.73653,0 -0.64945,-0.471 0.41076,-1.40757 0,-2.00337 -0.20537,-0.29789 -1.06935,0.23552 -1.39408,0 -0.32473,-0.2355 0.32473,-0.7568 0,-0.99232 -0.32473,-0.23551 -0.93259,0.10534 -1.36826,0 -9.97931,-2.41249 2.17463,0.28304 -4.1306,-2.00338 -0.41075,-0.14894 -0.98333,0.14896 -1.39408,0 -1.16179,-0.42128 -1.57474,-1.56335 -2.73653,-1.98464 -0.41076,-0.14896 -0.95841,0.10533 -1.39408,0 -0.97419,-0.23552 -1.76234,-0.77554 -2.73653,-1.01106 -0.86713,-0.20962 -5.65113,0 -6.89294,0 -0.83182,0 -3.02883,-0.10434 -4.4404,-0.0749 z" style="fill:#000b00;fill-opacity:1;stroke:none"/>
      <path inkscape:connector-curvature="0" id="path4345" d="m 316.72713,905.10141 c 0.20072,-0.18374 0.72172,-0.20338 1.15777,-0.0436 0.48187,0.17651 0.33874,0.30753 -0.36495,0.33406 -0.63677,0.024 -0.99355,-0.10668 -0.79282,-0.29041 z m 62.623,-1.33653 c -2.64861,-0.66641 -4.19312,-1.64684 -4.19312,-2.66176 0,-0.5367 -0.25877,-1.21269 -0.57504,-1.5022 -0.6893,-0.63096 -0.77873,-2.77862 -0.38514,-9.24835 0.20138,-3.31017 0.0937,-4.73957 -0.33862,-4.49498 -0.43832,0.24796 -0.44473,0.0351 -0.0208,-0.69003 0.41723,-0.71361 0.41207,-1.37747 -0.0161,-2.07785 -0.47707,-0.78032 -0.45011,-0.92787 0.11148,-0.61016 0.57076,0.3229 0.58829,0.15834 0.0764,-0.71721 -0.82097,-1.40418 -0.86766,-3.42069 -0.0792,-3.42069 0.3218,0 0.42863,-0.37323 0.23739,-0.8294 -0.19123,-0.45617 -0.0755,-0.8294 0.25726,-0.8294 0.82684,0 -0.45841,-3.60003 -2.2208,-6.22053 -1.29125,-1.91996 -3.08735,-2.80457 -3.08735,-1.52057 0,0.30412 -0.20387,0.50008 -0.45305,0.43547 -0.24917,-0.0646 -1.04647,0.18406 -1.77177,0.5526 -0.92228,0.46863 -1.30332,1.16632 -1.26746,2.32071 0.12445,4.00696 -4.60258,5.54826 -14.7416,4.8066 -4.11477,-0.30099 -4.47688,0.15128 -2.82508,3.52848 1.48973,3.04579 1.48655,3.04337 2.77165,2.12008 0.98342,-0.70653 1.00055,-0.6871 0.20803,0.23588 -0.77339,0.90071 -0.69435,1.13187 0.7563,2.21173 1.01828,0.75803 1.69517,1.87416 1.82247,3.00513 0.11138,0.98957 0.38265,1.96412 0.60283,2.16566 0.22017,0.20155 0.40032,1.32902 0.40032,2.50549 0,1.17646 0.39897,2.69639 0.88658,3.37761 0.48761,0.68122 1.00922,2.38498 1.15911,3.78613 l 0.27254,2.54756 -1.76317,-0.6092 c -0.96974,-0.33506 -1.76317,-0.81816 -1.76317,-1.07354 0,-0.25539 -0.33978,-0.28536 -0.75507,-0.0666 -0.41529,0.21877 -0.56094,0.2009 -0.32367,-0.0397 0.23727,-0.24061 -0.36037,-1.81366 -1.32809,-3.49569 -1.2791,-2.22323 -1.60668,-3.3196 -1.19978,-4.01557 0.39793,-0.6806 0.24171,-1.33407 -0.54043,-2.26055 -0.60509,-0.71678 -1.51497,-2.42291 -2.02195,-3.79142 -1.903,-5.13689 -9.35828,-13.82338 -11.86405,-13.82338 -0.26741,0 -1.10382,1.20705 -1.85869,2.68233 -1.04836,2.04887 -1.32239,3.42017 -1.16035,5.80666 0.11667,1.71838 0.0346,3.18616 -0.18244,3.26172 -0.43371,0.15102 0.79751,6.704 1.8579,9.88841 0.46496,1.39629 1.20648,2.21359 2.42885,2.67706 1.83027,0.69397 2.8342,2.10292 2.01717,2.83098 -0.26006,0.23174 -1.1619,0.57691 -2.00407,0.76703 -1.17787,0.26591 -2.19144,-0.11574 -4.39201,-1.65381 -1.57344,-1.09973 -2.71477,-2.21577 -2.5363,-2.4801 0.17847,-0.26432 0.0523,-0.63457 -0.28039,-0.82278 -0.33267,-0.18821 -0.58697,-1.76053 -0.5651,-3.49405 0.0958,-7.59794 -0.0703,-11.16942 -0.51967,-11.16942 -0.26554,0 -0.53978,-0.63035 -0.60944,-1.40077 -0.0697,-0.77043 -0.50743,-2.07673 -0.97284,-2.90291 -0.73102,-1.2977 -0.72311,-1.78391 0.0581,-3.57251 0.49738,-1.13869 1.14542,-1.93397 1.44008,-1.76727 0.29467,0.16671 1.2176,-0.32104 2.05096,-1.08388 1.32052,-1.20875 1.50465,-1.83426 1.43294,-4.86795 -0.0453,-1.91454 -0.19923,-2.85892 -0.3422,-2.09863 -0.68675,3.65199 -1.58263,5.69109 -2.98865,6.80242 -1.44231,1.14002 -3.62642,4.406 -3.77079,5.63862 -0.15684,1.33895 -1.29887,0.73695 -2.15339,-1.13513 -1.48806,-3.26002 -1.19987,-4.60837 1.48457,-6.9459 1.32893,-1.15719 2.41622,-2.40538 2.41622,-2.77375 0,-0.36839 0.41625,-1.09081 0.92499,-1.60539 0.50875,-0.51458 1.01381,-2.22815 1.12235,-3.80793 0.10855,-1.57978 0.46852,-3.12054 0.79993,-3.42391 0.35744,-0.32718 0.42069,-1.46209 0.15546,-2.78973 -0.2846,-1.42467 -0.12778,-3.47345 0.43147,-5.63686 0.48323,-1.86929 0.92755,-3.93782 0.98741,-4.59673 0.0599,-0.65892 0.21843,-1.0977 0.3524,-0.97506 0.48587,0.44475 3.09627,-3.34629 2.79651,-4.06134 -0.16939,-0.40409 -0.0611,-0.59499 0.24077,-0.42425 0.30182,0.17075 1.04622,-0.26797 1.65424,-0.97492 0.60801,-0.70695 3.00824,-2.4346 5.33386,-3.83921 2.32562,-1.40461 4.50022,-3.03697 4.83245,-3.62744 0.33224,-0.59048 1.12334,-1.91324 1.75801,-2.9395 0.86043,-1.39131 1.19315,-3.16108 1.30808,-6.95777 0.0848,-2.80052 0.32906,-5.35093 0.54285,-5.66759 0.21381,-0.31665 0.10939,-0.57574 -0.23202,-0.57574 -0.34142,0 -0.45376,-0.39833 -0.24966,-0.8852 0.20411,-0.48687 -0.008,-1.10511 -0.47199,-1.37387 -0.65387,-0.37899 -0.66563,-0.49057 -0.0524,-0.49714 0.4349,-0.004 0.64065,-0.23074 0.45722,-0.50241 -0.40259,-0.59628 2.48461,-1.33977 3.33484,-0.85878 0.33047,0.18697 0.43556,0.81662 0.23354,1.39926 -0.57951,1.67135 0.49591,1.24274 2.54461,-1.01417 3.50617,-3.86249 4.25652,-4.56171 4.89523,-4.56171 0.92658,0 2.12256,-3.72134 1.74851,-5.44062 -0.51398,-2.36244 0.95818,-3.64268 4.28263,-3.72431 1.57007,-0.0385 3.16091,0.1466 3.53517,0.41145 0.81576,0.57726 1.09969,8.75348 0.30398,8.75348 -0.9404,0 -1.30607,2.54825 -0.62304,4.34178 0.3578,0.93951 0.92384,1.65326 1.25786,1.58612 1.27391,-0.25607 1.98873,1.67368 1.15084,3.10681 -0.43914,0.75108 -0.60411,1.65341 -0.36661,2.00516 0.23748,0.35175 0.56692,1.43296 0.73207,2.4027 0.3976,2.33469 0.77752,2.60907 0.84628,0.6112 0.16912,-4.91319 0.17262,-4.92256 1.9105,-5.10555 1.55693,-0.16394 1.65407,-0.0518 1.51014,1.74315 -0.0846,1.0551 -0.39312,1.78348 -0.68557,1.61863 -0.29416,-0.16582 -0.41499,1.17773 -0.27044,3.00708 0.25966,3.28583 2.16053,6.70204 3.23506,5.81394 0.26348,-0.21778 0.27884,-0.078 0.0342,0.31066 -0.54109,0.85929 2.01431,2.96799 3.15191,2.60094 0.43254,-0.13956 0.62774,-0.0187 0.43379,0.26856 -0.50239,0.74409 2.51037,2.41678 3.63893,2.02037 0.51816,-0.18202 0.79446,-0.11225 0.614,0.15504 -0.30874,0.45728 2.58915,1.21426 5.50204,1.43725 1.18947,0.091 1.32875,-0.202 1.51014,-3.17739 0.10992,-1.80273 0.0876,-3.37959 -0.0495,-3.50412 -0.69975,-0.63553 -0.5653,-3.99043 0.22067,-5.50656 1.38477,-2.67122 6.26506,-3.78308 9.60539,-2.18838 0.94822,0.45267 1.96756,0.68528 2.26522,0.51689 0.29765,-0.16839 0.54983,-0.10487 0.56039,0.14116 0.0433,1.00896 1.78509,2.47974 3.10259,2.61989 3.4048,0.36221 5.13032,1.06277 6.50278,2.6401 1.43638,1.65081 1.44326,1.70604 0.30203,2.42821 -0.64229,0.40644 -1.56584,1.05592 -2.05233,1.44329 -0.4865,0.38737 -1.36993,0.62904 -1.96319,0.53704 -0.93601,-0.14515 -1.07865,0.27173 -1.07865,3.15246 0,3.32925 -0.73004,4.59673 -1.98562,3.44741 -0.93778,-0.85842 -1.66495,-0.76834 -1.27656,0.15813 0.17834,0.42541 -0.008,0.96149 -0.41431,1.19131 -0.50341,0.28478 -0.58297,0.18736 -0.24988,-0.30598 0.31739,-0.47009 0.25233,-0.59009 -0.18562,-0.34233 -0.46418,0.26261 -0.49323,0.81743 -0.0933,1.78045 0.33526,0.80714 0.36068,1.793 0.0601,2.3304 -0.28653,0.51229 -0.41099,2.16893 -0.27657,3.68143 0.18382,2.0684 -0.0849,3.33609 -1.08424,5.11465 -0.73074,1.30056 -1.51469,2.36465 -1.7421,2.36465 -0.22741,0 -0.72957,0.96577 -1.11592,2.14615 -0.38635,1.18038 -1.10595,2.45268 -1.5991,2.82732 -0.49316,0.37465 -0.74962,0.89896 -0.56991,1.16513 0.17971,0.26618 -0.0377,0.35595 -0.48307,0.1995 -0.46928,-0.16484 -1.56201,0.64611 -2.59861,1.92854 -0.98384,1.21715 -2.12858,2.21887 -2.54387,2.22606 -0.41529,0.007 -0.75507,0.26189 -0.75507,0.566 0,0.30412 -0.5276,0.55294 -1.17246,0.55294 -0.64485,0 -1.33312,0.23796 -1.52949,0.52878 -0.19636,0.29084 -0.80064,0.37296 -1.34285,0.18251 -0.71193,-0.25007 -0.84845,-0.14281 -0.49138,0.38605 0.33271,0.49279 0.26141,0.60049 -0.21799,0.32928 -0.42145,-0.23843 -1.37806,0.29129 -2.34205,1.29691 -0.89628,0.93497 -2.09667,1.69995 -2.66755,1.69995 -0.57087,0 -1.20744,0.25105 -1.41461,0.55788 -0.59032,0.87432 0.2895,2.75973 1.2878,2.75973 0.49557,0 0.75142,0.22161 0.56854,0.49246 -0.18287,0.27084 0.29354,0.86792 1.05869,1.32684 1.81646,1.08946 2.96543,4.63996 3.16889,9.79234 0.0901,2.28086 0.56885,5.54298 1.06394,7.24918 0.4951,1.70619 0.77348,3.96287 0.6186,5.01485 -0.15487,1.05199 0.10026,2.92722 0.56696,4.16719 1.38975,3.69241 -0.93933,5.48918 -3.60789,2.78327 -1.38254,-1.40189 -3.43389,-5.02895 -2.56677,-4.53839 0.30956,0.17513 0.59504,-0.25612 0.6344,-0.95832 0.10838,-1.93323 -0.12826,-2.89915 -0.80435,-3.28332 -0.37726,-0.21437 -0.30897,-0.44024 0.17805,-0.58883 0.85492,-0.26086 0.98131,-2.92543 0.33587,-7.08096 -0.40157,-2.58549 -2.38731,-6.69165 -4.08381,-8.44463 -0.9178,-0.94835 -1.00591,-0.9521 -1.38042,-0.0587 -0.22002,0.52485 -0.23457,1.96856 -0.0323,3.20825 0.24272,1.4877 0.0681,2.78162 -0.5138,3.806 -1.31405,2.3135 -1.07611,10.96411 0.34098,12.39685 0.58213,0.58857 0.89709,1.21779 0.69992,1.39828 -0.19718,0.18049 -0.17946,0.84455 0.0394,1.4757 0.28354,0.81776 0.90697,1.14754 2.16936,1.14754 1.46761,0 1.77146,0.22782 1.77146,1.32824 0,1.58039 -2.46546,2.582 -4.86773,1.97758 z m 13.28251,-59.65121 c 1.73438,-2.22957 1.5965,-7.27361 -0.1723,-6.30344 -0.38047,0.2087 -0.30915,-0.0521 0.1585,-0.57954 1.09744,-1.23771 0.38165,-1.83105 -2.66244,-2.20697 -1.32893,-0.16411 -3.46496,-0.70094 -4.74674,-1.19295 -2.69666,-1.03514 -3.18084,-0.84874 -2.19137,0.84361 0.39076,0.66835 0.58638,1.80935 0.43473,2.53557 -0.15166,0.72621 -0.054,1.32037 0.21718,1.32037 0.2711,0 0.6779,0.93308 0.90399,2.07351 0.22608,1.14043 0.76944,2.44673 1.20744,2.90291 3.1089,3.23782 3.28563,3.34822 4.44863,2.77847 0.63374,-0.31046 1.71482,-1.28766 2.40238,-2.17154 z" style="fill:#000000;stroke:none"/>
      <path style="fill:#000000;stroke:none" d="m 197.90058,895.58138 c 0.1756,-0.15125 0.6314,-0.16742 1.01288,-0.0359 0.42157,0.1453 0.29635,0.25315 -0.31928,0.27499 -0.55707,0.0198 -0.8692,-0.0878 -0.6936,-0.23906 z m 54.7855,-1.1002 c -2.31712,-0.54856 -3.66833,-1.35563 -3.66833,-2.19108 0,-0.4418 -0.22639,-0.99826 -0.50308,-1.23657 -0.60302,-0.51939 -0.68127,-2.28729 -0.33693,-7.61298 0.17617,-2.72484 0.082,-3.90148 -0.29624,-3.70015 -0.38346,0.20412 -0.38907,0.0289 -0.0182,-0.56802 0.365,-0.58741 0.36049,-1.13389 -0.0141,-1.71042 -0.41736,-0.64234 -0.39378,-0.7638 0.0975,-0.50227 0.49932,0.2658 0.51465,0.13035 0.0668,-0.59038 -0.71822,-1.15588 -0.75907,-2.81582 -0.0693,-2.81582 0.28153,0 0.37499,-0.30723 0.2077,-0.68274 -0.16731,-0.37551 -0.066,-0.68275 0.22505,-0.68275 0.72335,0 -0.40104,-2.96343 -1.94285,-5.12055 -1.12966,-1.58047 -2.70096,-2.30865 -2.70096,-1.25169 0,0.25034 -0.17836,0.41164 -0.39634,0.35846 -0.218,-0.0532 -0.91551,0.15151 -1.55004,0.45488 -0.80686,0.38576 -1.14021,0.96009 -1.10884,1.91035 0.10888,3.29842 -4.02655,4.56717 -12.89662,3.95666 -3.5998,-0.24777 -3.91659,0.12453 -2.47152,2.90454 1.30328,2.50721 1.3005,2.50522 2.42477,1.7452 0.86034,-0.58161 0.87533,-0.56561 0.18199,0.19416 -0.6766,0.74144 -0.60745,0.93172 0.66165,1.82064 0.89084,0.62398 1.48301,1.54276 1.59437,2.47374 0.0974,0.81459 0.33478,1.61681 0.5274,1.78271 0.19261,0.16591 0.35022,1.09401 0.35022,2.06244 0,0.96844 0.34902,2.21961 0.77561,2.78036 0.42659,0.56076 0.88292,1.96325 1.01405,3.11665 l 0.23843,2.09707 -1.54251,-0.50148 c -0.84837,-0.27581 -1.5425,-0.67348 -1.5425,-0.8837 0,-0.21023 -0.29726,-0.2349 -0.66056,-0.0548 -0.36332,0.18008 -0.49074,0.16537 -0.28317,-0.0327 0.20757,-0.19806 -0.31527,-1.49295 -1.16188,-2.87755 -1.11902,-1.8301 -1.40559,-2.7326 -1.04961,-3.30551 0.34812,-0.56025 0.21145,-1.09817 -0.47281,-1.86082 -0.52935,-0.59002 -1.32535,-1.99446 -1.76888,-3.12099 -1.66484,-4.22854 -8.18705,-11.37902 -10.37923,-11.37902 -0.23393,0 -0.96567,0.99361 -1.62606,2.20802 -0.91716,1.68658 -1.15689,2.81539 -1.01513,4.77988 0.10207,1.41452 0.0302,2.62275 -0.15961,2.68495 -0.37942,0.12432 0.6977,5.51855 1.62538,8.13987 0.40676,1.14939 1.05548,1.82217 2.12487,2.20368 1.60121,0.57126 2.4795,1.73107 1.76472,2.33038 -0.22752,0.19077 -1.01648,0.4749 -1.75327,0.63141 -1.03044,0.21889 -1.91716,-0.0953 -3.84233,-1.36138 -1.3765,-0.90526 -2.37499,-1.82396 -2.21887,-2.04154 0.15613,-0.21759 0.0458,-0.52237 -0.24529,-0.6773 -0.29103,-0.15492 -0.51351,-1.44921 -0.49438,-2.8762 0.0838,-6.25441 -0.0615,-9.19436 -0.45463,-9.19436 -0.2323,0 -0.47223,-0.51888 -0.53317,-1.15307 -0.0609,-0.6342 -0.44392,-1.70951 -0.85109,-2.38959 -0.63952,-1.06824 -0.6326,-1.46847 0.0509,-2.94079 0.43513,-0.93735 1.00206,-1.592 1.25984,-1.45477 0.25779,0.13722 1.06521,-0.26428 1.79427,-0.89222 1.15525,-0.99501 1.31634,-1.50992 1.25361,-4.00716 -0.0396,-1.576 -0.17429,-2.35339 -0.29938,-1.72755 -0.60079,3.00622 -1.38455,4.68475 -2.6146,5.59957 -1.26181,0.93843 -3.17256,3.62689 -3.29887,4.64155 -0.13721,1.1022 -1.13631,0.60665 -1.88388,-0.9344 -1.30182,-2.68356 -1.0497,-3.79348 1.29877,-5.71767 1.1626,-0.95257 2.11383,-1.98004 2.11383,-2.28327 0,-0.30325 0.36414,-0.89793 0.80922,-1.32151 0.44507,-0.4236 0.88692,-1.83416 0.98188,-3.13459 0.095,-1.30043 0.40988,-2.56874 0.69981,-2.81847 0.31271,-0.26932 0.36804,-1.20355 0.13601,-2.29643 -0.24898,-1.17275 -0.11179,-2.85924 0.37747,-4.6401 0.42275,-1.53875 0.81147,-3.24151 0.86383,-3.78391 0.0523,-0.54239 0.1911,-0.90359 0.30829,-0.80264 0.42507,0.36611 2.70876,-2.75458 2.44652,-3.34318 -0.14819,-0.33263 -0.0535,-0.48978 0.21064,-0.34923 0.26405,0.14056 0.91529,-0.22058 1.4472,-0.80252 0.53192,-0.58194 2.63175,-2.0041 4.66631,-3.16034 2.03456,-1.15623 3.93701,-2.49994 4.22765,-2.986 0.29065,-0.48606 0.98275,-1.57493 1.53799,-2.41972 0.75275,-1.14529 1.04383,-2.60211 1.14437,-5.72745 0.0742,-2.3053 0.28787,-4.40473 0.47491,-4.66539 0.18704,-0.26067 0.0957,-0.47393 -0.20299,-0.47393 -0.29868,0 -0.39696,-0.3279 -0.21841,-0.72868 0.17857,-0.40077 -0.007,-0.90969 -0.41292,-1.13093 -0.57204,-0.31197 -0.58232,-0.40382 -0.0459,-0.40923 0.38047,-0.003 0.56047,-0.18994 0.39999,-0.41357 -0.3522,-0.49084 2.17366,-1.10286 2.91747,-0.70692 0.28911,0.1539 0.38105,0.67222 0.20432,1.15183 -0.50698,1.37581 0.43383,1.02298 2.22614,-0.83484 3.06736,-3.1795 3.7238,-3.75508 4.28256,-3.75508 0.81063,0 1.85692,-3.0633 1.52969,-4.47856 -0.44965,-1.94469 0.83827,-2.99855 3.74664,-3.06575 1.37358,-0.0317 2.76531,0.12067 3.09273,0.3387 0.71367,0.47518 0.96206,7.20561 0.26594,7.20561 -0.8227,0 -1.14262,2.09765 -0.54507,3.57404 0.31302,0.77338 0.80822,1.36092 1.10044,1.30565 1.11447,-0.21079 1.73984,1.37772 1.0068,2.55744 -0.38417,0.61827 -0.52851,1.36104 -0.32073,1.65059 0.20777,0.28955 0.49598,1.17957 0.64046,1.97783 0.34784,1.92185 0.68021,2.14772 0.74037,0.50313 0.14794,-4.0444 0.15101,-4.05211 1.67138,-4.20275 1.36208,-0.13495 1.44707,-0.0426 1.32115,1.43492 -0.074,0.86853 -0.34392,1.46811 -0.59978,1.3324 -0.25734,-0.13649 -0.36305,0.96948 -0.23658,2.47535 0.22715,2.70481 1.89013,5.51693 2.83017,4.78587 0.23051,-0.17926 0.24395,-0.0642 0.0299,0.25573 -0.47336,0.70734 1.76221,2.44317 2.75744,2.14103 0.37841,-0.11489 0.54918,-0.0154 0.3795,0.22107 -0.43951,0.61251 2.19619,1.98942 3.1835,1.66311 0.45332,-0.14983 0.69504,-0.0924 0.53716,0.12762 -0.27011,0.37642 2.26511,0.99955 4.81344,1.1831 1.0406,0.0749 1.16245,-0.16627 1.32114,-2.61554 0.0962,-1.48395 0.0767,-2.78197 -0.0433,-2.88449 -0.61217,-0.52315 -0.49454,-3.2848 0.19306,-4.53285 1.21146,-2.19887 5.48097,-3.11412 8.40324,-1.80141 0.82954,0.37263 1.72131,0.56411 1.98171,0.42549 0.26041,-0.13862 0.48102,-0.0863 0.49026,0.1162 0.0379,0.83055 1.56168,2.04126 2.71428,2.15663 2.97868,0.29815 4.48825,0.87483 5.68894,2.17325 1.25662,1.3589 1.26262,1.40436 0.26423,1.99884 -0.5619,0.33457 -1.36986,0.8692 -1.79547,1.18807 -0.42561,0.31887 -1.19849,0.5178 -1.71749,0.44208 -0.81887,-0.11949 -0.94365,0.22368 -0.94365,2.59501 0,2.74055 -0.63867,3.7839 -1.73711,2.83782 -0.82041,-0.70663 -1.45658,-0.63248 -1.1168,0.13016 0.15602,0.35019 -0.007,0.79148 -0.36246,0.98065 -0.4404,0.23443 -0.51,0.15424 -0.2186,-0.25187 0.27766,-0.38697 0.22075,-0.48574 -0.16239,-0.28179 -0.40608,0.21617 -0.4315,0.67287 -0.0816,1.46561 0.2933,0.66442 0.31554,1.47595 0.0526,1.91833 -0.25066,0.42169 -0.35954,1.7854 -0.24195,3.03045 0.16081,1.70264 -0.0743,2.74617 -0.94855,4.21023 -0.63928,1.07059 -1.32512,1.94652 -1.52406,1.94652 -0.19895,0 -0.63827,0.79499 -0.97626,1.76665 -0.33799,0.97165 -0.96754,2.01897 -1.39897,2.32737 -0.43144,0.3084 -0.65581,0.74 -0.49858,0.9591 0.15722,0.21911 -0.033,0.29301 -0.42261,0.16422 -0.41055,-0.13569 -1.36652,0.53186 -2.27339,1.58752 -0.8607,1.00192 -1.86218,1.82652 -2.22549,1.83243 -0.36331,0.006 -0.66057,0.21558 -0.66057,0.46592 0,0.25034 -0.46158,0.45517 -1.02573,0.45517 -0.56415,0 -1.16628,0.19587 -1.33807,0.43528 -0.17178,0.2394 -0.70044,0.30701 -1.17478,0.15023 -0.62283,-0.20585 -0.74227,-0.11756 -0.42989,0.31778 0.29108,0.40565 0.2287,0.49432 -0.19071,0.27106 -0.36869,-0.19626 -1.20559,0.23978 -2.04892,1.06758 -0.78411,0.76964 -1.83427,1.39935 -2.3337,1.39935 -0.49942,0 -1.05634,0.20666 -1.23757,0.45923 -0.51644,0.71972 0.25327,2.27174 1.12663,2.27174 0.43355,0 0.65737,0.18242 0.49739,0.40538 -0.15999,0.22294 0.2568,0.71444 0.92618,1.09221 1.58912,0.89682 2.59429,3.81949 2.7723,8.06079 0.0788,1.87753 0.49765,4.56282 0.93079,5.96732 0.43313,1.40449 0.67667,3.26213 0.54117,4.12809 -0.1355,0.86596 0.0877,2.4096 0.496,3.4303 1.21582,3.0395 -0.82177,4.51854 -3.15635,2.29113 -1.2095,-1.154 -3.00413,-4.1397 -2.24553,-3.73589 0.27082,0.14416 0.52057,-0.21083 0.555,-0.78886 0.0948,-1.59138 -0.1122,-2.3865 -0.70367,-2.70273 -0.33006,-0.17646 -0.27031,-0.36239 0.15576,-0.48473 0.74793,-0.21472 0.8585,-2.40812 0.29384,-5.82883 -0.35132,-2.12831 -2.08854,-5.50839 -3.57271,-6.95139 -0.80294,-0.78066 -0.88001,-0.78375 -1.20766,-0.0484 -0.19249,0.43205 -0.2052,1.62047 -0.0282,2.64095 0.21233,1.22462 0.0595,2.28974 -0.44951,3.13299 -1.14958,1.90441 -0.94142,9.02534 0.2983,10.20474 0.50928,0.48449 0.78482,1.00245 0.61233,1.15102 -0.1725,0.14858 -0.15699,0.69521 0.0344,1.21476 0.24806,0.67316 0.79345,0.94462 1.89785,0.94462 1.28394,0 1.54975,0.18753 1.54975,1.09338 0,1.30092 -2.15689,2.12542 -4.25852,1.62788 z m 11.62016,-49.10321 c 1.5173,-1.83532 1.39669,-5.98744 -0.15074,-5.18882 -0.33286,0.17179 -0.27045,-0.0429 0.13867,-0.47706 0.96008,-1.01885 0.33387,-1.50727 -2.32923,-1.81672 -1.16261,-0.13508 -3.03131,-0.57699 -4.15266,-0.982 -2.35918,-0.8521 -2.78276,-0.69866 -1.91713,0.69443 0.34186,0.55017 0.513,1.48942 0.38033,2.08721 -0.13268,0.5978 -0.0472,1.0869 0.19,1.0869 0.23717,0 0.59306,0.76808 0.79085,1.70685 0.19779,0.93877 0.67314,2.01409 1.05632,2.38959 2.71982,2.66529 2.87443,2.75617 3.89188,2.28716 0.55442,-0.25556 1.50019,-1.05996 2.10171,-1.78754 z" id="path4349" inkscape:connector-curvature="0"/>
      <path inkscape:connector-curvature="0" id="path4351" d="m 101.52913,906.6978 c 0.13478,-0.13031 0.48459,-0.14425 0.77737,-0.031 0.32354,0.1252 0.22744,0.21813 -0.24504,0.23696 -0.42755,0.017 -0.66709,-0.0757 -0.53233,-0.206 z m 42.04685,-0.948 c -1.77836,-0.47269 -2.81538,-1.16813 -2.81538,-1.88801 0,-0.3807 -0.17375,-0.86018 -0.3861,-1.06554 -0.46281,-0.44754 -0.52287,-1.97089 -0.25859,-6.55993 0.13521,-2.34793 0.0629,-3.36182 -0.22736,-3.18833 -0.29431,0.17588 -0.29861,0.0248 -0.0139,-0.48946 0.28013,-0.50615 0.27667,-0.97704 -0.0108,-1.47382 -0.32032,-0.55349 -0.30221,-0.65815 0.0748,-0.4328 0.38322,0.22903 0.39499,0.11232 0.0513,-0.50872 -0.55121,-0.996 -0.58258,-2.42633 -0.0532,-2.42633 0.21606,0 0.28779,-0.26474 0.1594,-0.5883 -0.12841,-0.32357 -0.0507,-0.5883 0.17273,-0.5883 0.55516,0 -0.3078,-2.55354 -1.4911,-4.41227 -0.867,-1.36186 -2.07295,-1.98932 -2.07295,-1.07856 0,0.21571 -0.13688,0.3547 -0.30418,0.30888 -0.16731,-0.0458 -0.70264,0.13055 -1.18962,0.39196 -0.61925,0.3324 -0.87509,0.82728 -0.85102,1.6461 0.0836,2.84219 -3.09029,3.93543 -9.89791,3.40937 -2.76278,-0.21349 -3.00591,0.1073 -1.89684,2.50278 1.00024,2.16041 0.99811,2.15869 1.86096,1.5038 0.6603,-0.50116 0.67181,-0.48737 0.13968,0.16731 -0.51928,0.63888 -0.46621,0.80284 0.5078,1.5688 0.68371,0.53767 1.13818,1.32936 1.22365,2.13157 0.0748,0.7019 0.25693,1.39316 0.40477,1.53612 0.14783,0.14296 0.26879,0.94268 0.26879,1.77716 0,0.83448 0.26787,1.91259 0.59526,2.39577 0.32741,0.4832 0.67762,1.6917 0.77827,2.68554 l 0.18299,1.80701 -1.18385,-0.43212 c -0.65111,-0.23765 -1.18384,-0.58032 -1.18384,-0.76146 0,-0.18116 -0.22814,-0.20241 -0.50697,-0.0472 -0.27884,0.15517 -0.37664,0.1425 -0.21732,-0.0281 0.1593,-0.17066 -0.24197,-1.28645 -0.89172,-2.47952 -0.85883,-1.57696 -1.07877,-2.35463 -0.80557,-2.84829 0.26719,-0.48275 0.16229,-0.94626 -0.36286,-1.60342 -0.40627,-0.50842 -1.01719,-1.7186 -1.35759,-2.6893 -1.27773,-3.64364 -6.28341,-9.80505 -7.96586,-9.80505 -0.17954,0 -0.74113,0.85618 -1.24798,1.90261 -0.70389,1.45328 -0.88788,2.42595 -0.77909,4.11871 0.0783,1.21886 0.0232,2.25997 -0.12249,2.31357 -0.29121,0.10712 0.53547,4.75521 1.24745,7.01394 0.31218,0.9904 0.81006,1.57012 1.63079,1.89886 1.22889,0.49224 1.90297,1.49163 1.35439,2.00804 -0.17462,0.16438 -0.78013,0.40921 -1.34559,0.54407 -0.79086,0.18862 -1.47139,-0.0821 -2.94893,-1.17306 -1.05644,-0.78005 -1.82276,-1.57168 -1.70294,-1.75916 0.11983,-0.18749 0.0351,-0.45011 -0.18825,-0.58361 -0.22337,-0.13349 -0.39412,-1.24876 -0.37943,-2.47836 0.0644,-5.38928 -0.0472,-7.92257 -0.34892,-7.92257 -0.17829,0 -0.36243,-0.44712 -0.4092,-0.99358 -0.0468,-0.54648 -0.3407,-1.47305 -0.65319,-2.05906 -0.49083,-0.92048 -0.48551,-1.26535 0.039,-2.53402 0.33396,-0.80769 0.76906,-1.37178 0.96691,-1.25354 0.19785,0.11824 0.81753,-0.22772 1.37707,-0.7688 0.88663,-0.85738 1.01026,-1.30107 0.96212,-3.45289 -0.0304,-1.358 -0.13377,-2.02785 -0.22976,-1.48858 -0.46111,2.59039 -1.06263,4.03674 -2.00667,4.82503 -0.96841,0.80862 -2.43488,3.1252 -2.53181,3.99952 -0.10531,0.94973 -0.8721,0.52273 -1.44585,-0.80515 -0.99912,-2.31238 -0.80562,-3.26878 0.99678,-4.9268 0.89228,-0.82081 1.62232,-1.70616 1.62232,-1.96745 0,-0.2613 0.27948,-0.77372 0.62107,-1.13871 0.34158,-0.36501 0.68069,-1.58046 0.75357,-2.70101 0.0729,-1.12055 0.31458,-2.21342 0.5371,-2.4286 0.23999,-0.23208 0.28246,-1.03709 0.10438,-1.97879 -0.19109,-1.01053 -0.0858,-2.46375 0.2897,-3.99827 0.32445,-1.32591 0.62278,-2.79314 0.66297,-3.26051 0.0402,-0.46737 0.14667,-0.7786 0.23662,-0.69162 0.32622,0.31547 2.07891,-2.37356 1.87764,-2.88074 -0.11373,-0.28663 -0.041,-0.42204 0.16167,-0.30093 0.20265,0.12112 0.70246,-0.19007 1.1107,-0.69151 0.40823,-0.50146 2.01982,-1.7269 3.5813,-2.7232 1.56149,-0.9963 3.02158,-2.15415 3.24464,-2.57297 0.22307,-0.41883 0.75425,-1.35709 1.18038,-2.08503 0.57772,-0.98686 0.80112,-2.24217 0.87828,-4.9352 0.057,-1.98643 0.22094,-3.79547 0.36449,-4.02007 0.14355,-0.22461 0.0735,-0.40838 -0.15579,-0.40838 -0.22923,0 -0.30466,-0.28255 -0.16762,-0.62788 0.13704,-0.34535 -0.006,-0.78386 -0.31692,-0.9745 -0.43903,-0.26882 -0.44692,-0.34796 -0.0352,-0.35262 0.292,-0.003 0.43015,-0.16367 0.30699,-0.35637 -0.27031,-0.42294 1.66823,-0.95031 2.2391,-0.60914 0.22188,0.13261 0.29244,0.57924 0.15681,0.99251 -0.3891,1.1855 0.33296,0.88149 1.70852,-0.71936 2.35414,-2.7397 2.85794,-3.23567 3.28679,-3.23567 0.62213,0 1.42515,-2.63958 1.174,-3.85908 -0.34509,-1.6757 0.64336,-2.58378 2.87547,-2.64168 1.0542,-0.0273 2.12233,0.10397 2.37362,0.29184 0.54773,0.40945 0.73836,6.20892 0.2041,6.20892 -0.63141,0 -0.87693,1.80749 -0.41833,3.07967 0.24024,0.6664 0.6203,1.17267 0.84457,1.12505 0.85533,-0.18164 1.33529,1.18715 0.7727,2.20368 -0.29485,0.53276 -0.40562,1.17279 -0.24615,1.42229 0.15945,0.24949 0.38065,1.01641 0.49153,1.70425 0.26696,1.65602 0.52205,1.85064 0.56822,0.43353 0.11355,-3.48497 0.11591,-3.49161 1.28276,-3.62141 1.04537,-0.11628 1.11059,-0.0367 1.01396,1.23644 -0.0568,0.74838 -0.26395,1.26503 -0.46032,1.1481 -0.19751,-0.11761 -0.27863,0.83537 -0.18157,2.13295 0.17433,2.33067 1.45064,4.75381 2.1721,4.12388 0.17691,-0.15447 0.18722,-0.0553 0.023,0.22036 -0.3633,0.6095 1.35247,2.10522 2.11628,1.84487 0.29042,-0.099 0.42149,-0.0132 0.29126,0.19049 -0.33731,0.52779 1.68553,1.71425 2.44328,1.43306 0.34791,-0.1291 0.53342,-0.0796 0.41226,0.10998 -0.20731,0.32435 1.73843,0.86128 3.69422,1.01945 0.79865,0.0646 0.89216,-0.14327 1.01395,-2.25375 0.0738,-1.2787 0.0589,-2.39717 -0.0332,-2.4855 -0.46983,-0.45079 -0.37954,-2.83045 0.14818,-3.90586 0.92977,-1.89472 4.20653,-2.68337 6.44932,-1.55224 0.63665,0.32109 1.32107,0.48608 1.52092,0.36664 0.19986,-0.11945 0.36918,-0.0744 0.37627,0.10012 0.0291,0.71567 1.19856,1.75891 2.08317,1.85832 2.28607,0.25691 3.44464,0.75383 4.36615,1.87264 0.96443,1.17094 0.96904,1.21011 0.20278,1.72236 -0.43124,0.28829 -1.05134,0.74897 -1.37799,1.02374 -0.32664,0.27476 -0.91981,0.44617 -1.31814,0.38092 -0.62846,-0.10296 -0.72423,0.19274 -0.72423,2.23607 0,2.36147 -0.49016,3.2605 -1.3332,2.44528 -0.62964,-0.60888 -1.11789,-0.54499 -0.85712,0.11216 0.11975,0.30175 -0.005,0.682 -0.27818,0.845 -0.33801,0.20201 -0.39142,0.13291 -0.16778,-0.21703 0.21311,-0.33344 0.16943,-0.41855 -0.12462,-0.24281 -0.31167,0.18627 -0.33117,0.57981 -0.0626,1.2629 0.22509,0.5725 0.24217,1.27179 0.0403,1.65296 -0.19238,0.36337 -0.27594,1.53844 -0.1857,2.61128 0.12342,1.46713 -0.057,2.36632 -0.72798,3.62787 -0.49065,0.92249 -1.01701,1.67726 -1.16969,1.67726 -0.1527,0 -0.48986,0.68503 -0.74927,1.52229 -0.2594,0.83725 -0.74256,1.7397 -1.07368,2.00544 -0.33113,0.26575 -0.50332,0.63764 -0.38265,0.82645 0.12066,0.18879 -0.0253,0.25246 -0.32435,0.14149 -0.31508,-0.11692 -1.04877,0.4583 -1.74478,1.36793 -0.66057,0.86334 -1.42919,1.57387 -1.70803,1.57897 -0.27883,0.005 -0.50696,0.18576 -0.50696,0.40148 0,0.2157 -0.35426,0.3922 -0.78723,0.3922 -0.43298,0 -0.8951,0.16878 -1.02695,0.37507 -0.13184,0.2063 -0.53757,0.26455 -0.90162,0.12945 -0.47801,-0.17737 -0.56967,-0.10129 -0.32993,0.27383 0.2234,0.34954 0.17552,0.42594 -0.14637,0.23357 -0.28297,-0.16912 -0.92526,0.20661 -1.57251,0.9199 -0.60179,0.66319 -1.40776,1.20579 -1.79106,1.20579 -0.3833,0 -0.81073,0.17808 -0.94982,0.39571 -0.39635,0.62016 0.19438,1.95751 0.86467,1.95751 0.33274,0 0.50452,0.15718 0.38174,0.3493 -0.12279,0.19211 0.19709,0.61563 0.71082,0.94113 1.21962,0.77278 1.99107,3.29118 2.12769,6.94581 0.0605,1.61783 0.38194,3.93169 0.71436,5.14191 0.33242,1.21022 0.51933,2.8109 0.41534,3.55708 -0.10399,0.74619 0.0673,2.0763 0.38067,2.95582 0.93313,2.61907 -0.6307,3.89353 -2.42243,1.97421 -0.92828,-0.99437 -2.30562,-3.56708 -1.72341,-3.21912 0.20785,0.12422 0.39953,-0.18167 0.42596,-0.67975 0.0728,-1.37127 -0.0861,-2.0564 -0.54006,-2.32888 -0.25331,-0.15207 -0.20745,-0.31227 0.11955,-0.41767 0.57401,-0.18503 0.65887,-2.07503 0.22551,-5.02259 -0.26963,-1.83391 -1.60292,-4.74646 -2.74199,-5.98986 -0.61624,-0.67267 -0.67539,-0.67533 -0.92685,-0.0417 -0.14774,0.37229 -0.1575,1.39632 -0.0217,2.27565 0.16296,1.05523 0.0457,1.97302 -0.34498,2.69962 -0.88229,1.64099 -0.72254,7.77694 0.22894,8.79321 0.39086,0.41747 0.60233,0.86379 0.46995,0.99181 -0.1324,0.12802 -0.12049,0.59905 0.0264,1.04672 0.19038,0.58005 0.60896,0.81397 1.45656,0.81397 0.9854,0 1.18941,0.16159 1.18941,0.94213 0,1.12098 -1.65537,1.83144 -3.26833,1.40271 z m 8.91825,-42.31116 c 1.1645,-1.58146 1.07193,-5.15924 -0.11569,-4.47109 -0.25547,0.14802 -0.20757,-0.0369 0.10642,-0.41108 0.73684,-0.87792 0.25624,-1.29878 -1.78764,-1.56541 -0.89228,-0.11642 -2.32647,-0.49719 -3.18709,-0.84619 -1.81062,-0.73423 -2.13571,-0.60201 -1.47135,0.59839 0.26237,0.47407 0.39372,1.2834 0.29189,1.7985 -0.10182,0.51511 -0.0362,0.93656 0.14582,0.93656 0.18203,0 0.45516,0.66183 0.60697,1.47075 0.1518,0.80892 0.51662,1.73549 0.8107,2.05906 2.0874,2.29662 2.20608,2.37492 2.98694,1.9708 0.42552,-0.22021 1.15138,-0.91335 1.61303,-1.54029 z" style="fill:#000000;stroke:none"/>
      <path inkscape:connector-curvature="0" id="path4464" d="m 156.6635,921.72113 c -7.47195,5e-5 -14.07425,3.0974 -19.8269,9.28152 -5.3788,5.79341 -8.88913,13.04668 -10.53305,21.76271 l -5.93774,27.67358 -4.5953,-0.51293 9.52621,-44.18491 c 0.0752,-0.53631 0.21541,-1.3225 0.43887,-2.3448 -2e-5,-0.68195 -2e-5,-1.37097 0,-2.10055 -2e-5,-2.87214 -0.76658,-5.13412 -2.29764,-6.79017 -1.53112,-1.65594 -3.8005,-2.4913 -6.78969,-2.49135 -5.15533,5e-5 -9.16806,1.74552 -12.08202,5.25138 -2.91397,3.50592 -4.38877,7.78379 -4.38877,12.84758 l 1.23918,0 c 0,-4.82008 1.27963,-8.75399 3.82081,-11.84615 2.54116,-3.09201 5.96849,-4.64066 10.3007,-4.64076 1.56869,1e-4 2.68347,0.41789 3.35612,1.29453 0.67263,0.87668 1.0068,2.20359 1.00683,3.95686 -7e-5,1.06985 -0.0572,2.07923 -0.20653,3.05313 -0.14934,0.97405 -0.37254,2.17895 -0.67122,3.59048 l -8.0805,37.39474 -1.34244,6.71689 c -2.01563,0 -5.07959,0.31963 -9.1906,0.95258 -1.270022,0.19469 -2.997163,0.49022 -5.163258,0.8793 l 0.800305,1.02585 c 4.706123,-1.16787 10.111793,-1.7586 16.238443,-1.7586 2.38953,0 8.37726,0.56654 17.94232,1.68532 4.18395,0.48718 7.61241,0.73275 10.3007,0.73275 5.75492,0 10.96095,-0.63919 15.59303,-1.90515 4.63196,-1.26596 8.47763,-3.11065 11.53988,-5.54448 0.97125,-1.16936 1.66768,-2.15238 2.11694,-2.93101 1.34517,-2.3373 2.01359,-4.64849 2.01367,-6.93671 -8e-5,-1.60627 -0.37746,-3.20488 -1.16174,-4.78731 -0.78442,-1.58243 -2.05005,-3.08264 -3.76917,-4.49421 -1.42059,-1.12035 -3.0086,-2.10319 -4.80183,-2.97985 -1.79337,-0.87664 -3.79753,-1.56582 -5.96356,-2.05171 l 5.3956,-2.12498 c 9.4897,-3.74881 14.22469,-8.46971 14.22477,-14.16652 -8e-5,-3.50511 -1.89429,-6.62813 -5.7054,-9.37922 -3.81126,-2.75104 -8.26702,-4.12778 -13.34702,-4.12783 z m 640.26968,0 c -7.47201,5e-5 -14.10005,3.0974 -19.85272,9.28152 -5.37878,5.79341 -8.88914,13.04668 -10.53305,21.76271 l -5.93774,27.67358 -4.5953,-0.51293 9.52621,-44.18491 c 0.075,-0.53631 0.21533,-1.3225 0.43887,-2.3448 -7e-5,-0.68195 -7e-5,-1.37097 0,-2.10055 -7e-5,-2.87214 -0.76653,-5.13412 -2.29764,-6.79017 -1.53111,-1.65594 -3.77468,-2.4913 -6.76387,-2.49135 -5.15534,5e-5 -9.19388,1.74552 -12.10784,5.25138 -2.91397,3.50592 -4.36296,7.78379 -4.36295,12.84758 l 1.21336,0 c 0,-4.82008 1.27963,-8.75399 3.82081,-11.84615 2.54116,-3.09201 5.96851,-4.64066 10.3007,-4.64076 1.56868,1e-4 2.70914,0.41789 3.38194,1.29453 0.67257,0.87668 1.00683,2.20359 1.00683,3.95686 0,1.06985 -0.0831,2.07923 -0.23235,3.05313 -0.14926,0.97405 -0.37269,2.17895 -0.67122,3.59048 l -8.0805,37.39474 -1.34244,6.71689 c -2.01563,0 -5.07958,0.31963 -9.1906,0.95258 -1.27002,0.19469 -2.97134,0.49022 -5.13744,0.8793 l 0.77449,1.02585 c 4.70612,-1.16787 10.11179,-1.7586 16.23844,-1.7586 2.3895,0 8.37722,0.56654 17.94232,1.68532 4.18391,0.48718 7.61244,0.73275 10.3007,0.73275 5.75493,0 10.96095,-0.63919 15.59303,-1.90515 4.63193,-1.26596 8.47758,-3.11065 11.53988,-5.54448 0.97126,-1.16936 1.66768,-2.15238 2.11694,-2.93101 1.34507,-2.3373 2.03941,-4.64849 2.03948,-6.93671 -7e-5,-1.60627 -0.40328,-3.20488 -1.18755,-4.78731 -0.78441,-1.58243 -2.02424,-3.08264 -3.74336,-4.49421 -1.42059,-1.12035 -3.03448,-2.10319 -4.82764,-2.97985 -1.7934,-0.87664 -3.7717,-1.56582 -5.93775,-2.05171 l 5.36979,-2.12498 c 9.48966,-3.74881 14.25051,-8.46971 14.25059,-14.16652 -8e-5,-3.50511 -1.92011,-6.62813 -5.73122,-9.37922 -3.81125,-2.75104 -8.24125,-4.12778 -13.3212,-4.12783 z m -314.10674,0.14655 c -8.51621,5e-5 -16.12227,2.11515 -22.84741,6.35051 -6.72517,4.2355 -10.70654,9.52212 -11.90131,15.85185 l -3.58846,20.81014 c 0,0.14561 -0.0583,0.44083 -0.20653,0.8793 l 0,1.31896 c 0,5.16193 3.12228,9.24361 9.39713,12.26137 5.52923,2.63001 12.18537,3.95686 19.95599,3.95686 7.02267,0 13.2336,-1.47516 18.61354,-4.42094 5.37985,-2.9457 8.72303,-6.68218 10.06835,-11.21109 l -1.34245,-0.14655 c -1.34531,4.38173 -4.63132,7.97272 -9.86182,10.79587 -4.93191,2.67901 -10.44746,4.03013 -16.57405,4.03013 -6.42536,0 -11.89887,-1.45018 -16.41916,-4.34766 -4.52031,-2.8974 -6.78969,-6.56045 -6.78968,-10.99127 -6.6e-4,-0.24222 0.0138,-0.56275 0.0516,-0.92815 0.0377,-0.36548 0.10554,-0.78277 0.18071,-1.2701 l 4.36296,-24.1808 c 0.97131,-5.20935 4.34144,-9.48788 10.09416,-12.87199 5.75266,-3.38397 12.18678,-5.08031 19.28477,-5.08041 6.57577,10e-5 11.64609,1.45028 15.23161,4.34765 3.5854,2.89752 5.36972,6.97853 5.36978,12.23695 -6e-5,4.42938 -1.67222,8.33984 -5.03417,11.77287 -3.36207,3.43316 -7.6238,5.15369 -12.77906,5.15369 -2.46484,0 -4.74937,-0.39295 -6.84132,-1.19683 -2.09204,-0.80382 -3.63802,-1.81176 -4.64693,-3.02871 -1.00898,-1.21689 -1.76036,-2.49604 -2.24602,-3.8103 -0.48566,-1.31422 -0.72289,-2.6901 -0.72285,-4.15226 -4e-5,-1.99544 0.44633,-3.71747 1.34244,-5.17811 0.37391,-0.73096 0.90215,-1.46802 1.5748,-2.17383 0.6726,-0.70577 1.53502,-1.39404 2.58163,-2.07613 l 0,-1.1724 c -1.3453,0.87673 -2.40289,1.66357 -3.14959,2.3448 -0.74677,0.68128 -1.38601,1.39402 -1.91041,2.12498 -1.1948,1.70435 -1.78135,3.67172 -1.78132,5.91086 -3e-5,3.21396 1.00258,6.01745 3.02051,8.40222 1.41819,1.75332 3.25749,2.98228 5.49886,3.71261 2.2413,0.73001 4.77477,1.09912 7.61581,1.09912 5.60216,0 10.19923,-1.89315 13.78589,-5.69103 3.28785,-3.4561 4.93085,-7.46507 4.93091,-12.04155 -6e-5,-6.42782 -2.42364,-11.07464 -7.28019,-13.89785 -4.03583,-2.33718 -9.71739,-3.49273 -17.03875,-3.49278 z m -329.62232,2.56463 c 4.55787,5e-5 8.55658,1.20489 12.03039,3.61491 3.47366,2.41011 5.21482,5.04158 5.21489,7.91371 -7e-5,0.63298 -0.11222,1.24801 -0.33561,1.83188 -1.34534,3.94354 -3.6719,7.09073 -6.99622,9.45249 -3.32445,2.3618 -8.1004,4.08241 -14.30222,5.15368 l -6.71223,1.09913 0,0.70833 c 1.34521,-0.19454 2.22281,-0.26863 2.63326,-0.26868 0.41037,5e-5 0.98177,5e-5 1.72969,0 3.88524,5e-5 7.33725,0.73752 10.32651,2.24711 2.46474,1.21695 4.50026,2.91463 6.14428,5.10483 1.94257,2.53192 2.91717,4.96454 2.91724,7.25424 -7e-5,4.0401 -2.67599,7.40985 -8.05468,10.13639 -5.00717,2.53184 -10.68872,3.81031 -17.03875,3.81031 -2.98926,0 -6.16424,-0.22127 -9.52621,-0.63505 -3.36205,-0.41386 -6.62116,-0.8317 -9.75855,-1.2701 l 6.40244,-27.82013 c 1.56867,-7.25543 4.35675,-13.52439 8.39029,-18.78286 4.85657,-6.37728 10.5101,-9.55014 16.93548,-9.55019 z m 640.24386,0 c 4.55789,5e-5 8.58244,1.20489 12.05621,3.61491 3.47369,2.41011 5.18892,5.04158 5.18907,7.91371 0,0.63298 -0.11207,1.24801 -0.33561,1.83188 -1.3453,3.94354 -3.67186,7.09073 -6.99622,9.45249 -3.32442,2.3618 -8.07462,4.08241 -14.2764,5.15368 l -6.73805,1.09913 0,0.70833 c 1.34522,-0.19454 2.2226,-0.26863 2.63326,-0.26868 0.4103,5e-5 0.98175,5e-5 1.72969,0 3.88524,5e-5 7.33725,0.73752 10.32652,2.24711 2.46472,1.21695 4.52604,2.91463 6.17009,5.10483 1.94258,2.53192 2.91716,4.96454 2.91724,7.25424 -8e-5,4.0401 -2.7018,7.40985 -8.0805,10.13639 -5.00714,2.53184 -10.68872,3.81031 -17.03875,3.81031 -2.98919,0 -6.16427,-0.22127 -9.52621,-0.63505 -3.36207,-0.41386 -6.62118,-0.8317 -9.75855,-1.2701 l 6.40244,-27.82013 c 1.56868,-7.25543 4.35674,-13.52439 8.39029,-18.78286 4.85656,-6.37728 10.51017,-9.55014 16.93548,-9.55019 z m -576.78743,3.63933 c -2.76349,5e-5 -4.99085,0.78618 -6.63479,2.34481 -1.27002,1.16793 -2.1908,2.76722 -2.78815,4.81173 l 0.90357,0.21982 c 0.52214,-1.70425 1.2887,-3.081 2.29764,-4.12783 1.00895,-1.04674 2.05587,-1.56311 3.17541,-1.5632 1.12183,9e-5 1.67805,0.46805 1.67806,1.39223 0,0.0981 -0.0281,0.31902 -0.10327,0.6839 -0.075,0.36479 -0.10327,0.68424 -0.10326,0.977 l -8.31285,40.32575 c -0.0729,0.4384 -0.1453,1.02827 -0.25816,1.7586 -0.1132,0.73033 -0.18071,1.34588 -0.18071,1.88073 0,3.31203 0.77828,4.98271 2.34928,4.98271 0.59738,0 1.30676,-0.36822 2.09112,-1.0747 0.78435,-0.70657 1.72024,-1.96057 2.83979,-3.76146 l 10.99773,-17.58603 c 0.89607,-1.41306 2.04,-2.66628 3.45939,-3.76146 1.41935,-1.09502 2.78311,-1.63643 4.05315,-1.63648 0.52213,5e-5 0.96848,0.17272 1.34245,0.56178 0.37392,0.38939 0.51405,0.78324 0.43888,1.1724 l -4.15642,22.56874 c -0.22351,0.87516 -0.0155,1.71202 0.61959,2.49136 0.63498,0.77941 1.62587,1.1724 2.96887,1.1724 2.09311,0 4.16733,-0.71337 6.22172,-2.14941 2.05434,-1.43611 3.43214,-3.15677 4.10479,-5.15368 l -1.00683,-0.14655 c -0.44693,1.46066 -1.3105,2.64123 -2.58163,3.54163 -1.27119,0.90033 -2.49699,1.34338 -3.69173,1.34338 -1.27008,0 -1.79826,-0.59074 -1.57479,-1.75861 l 4.1306,-21.83598 c 0.22343,-1.02226 -0.1248,-1.85827 -1.05846,-2.51578 -0.93374,-0.65742 -2.06252,-0.97701 -3.40775,-0.97701 -1.94267,0 -4.00402,0.73753 -6.1701,2.24711 -1.86742,1.31504 -3.37024,2.8888 -4.49203,4.68961 l -10.40396,16.80443 c -0.15049,0.19462 -0.46955,0.58843 -0.95521,1.19682 -0.48567,0.60856 -0.86081,0.90373 -1.08428,0.90373 -0.22346,0 -0.3098,-0.2711 -0.30979,-0.80603 0,-0.68202 0.14019,-1.78756 0.43887,-3.34623 l 8.05468,-38.93352 c 0.0752,-0.38927 0.17222,-0.93061 0.28398,-1.63647 0.11153,-0.70572 0.1807,-1.27132 0.18072,-1.70976 -2e-5,-2.38624 -1.1148,-3.59043 -3.35612,-3.59048 z m 301.844,0 c -2.76349,5e-5 -4.96502,0.78618 -6.60897,2.34481 -1.27002,1.16793 -2.21661,2.76722 -2.81397,4.81173 l 0.90357,0.21982 c 0.52213,-1.70425 1.2887,-3.081 2.29765,-4.12783 1.00894,-1.04674 2.05586,-1.56311 3.1754,-1.5632 1.12184,9e-5 1.70386,0.46805 1.70387,1.39223 0,0.0981 -0.0539,0.31902 -0.12908,0.6839 -0.075,0.36479 -0.10327,0.68424 -0.10326,0.977 l -8.28703,40.32575 c -0.0729,0.4384 -0.17112,1.02827 -0.28398,1.7586 -0.11245,0.73033 -0.18071,1.34588 -0.18071,1.88073 0,3.31203 0.8041,4.98271 2.37509,4.98271 0.59739,0 1.28095,-0.36822 2.06531,-1.0747 0.78434,-0.70657 1.72025,-1.96057 2.83979,-3.76146 l 10.99774,-17.58603 c 0.89605,-1.41306 2.0658,-2.66628 3.48519,-3.76146 1.41934,-1.09502 2.75731,-1.63643 4.02734,-1.63648 0.52212,5e-5 0.96848,0.17272 1.34245,0.56178 0.37392,0.38939 0.51405,0.78324 0.43888,1.1724 l -4.13061,22.56874 c -0.2235,0.87516 -0.0154,1.71202 0.61959,2.49136 0.63499,0.77941 1.60005,1.1724 2.94306,1.1724 2.09309,0 4.16732,-0.71337 6.22172,-2.14941 2.05434,-1.43611 3.43215,-3.15677 4.10479,-5.15368 l -1.00683,-0.14655 c -0.44694,1.46066 -1.31051,2.64123 -2.58163,3.54163 -1.27119,0.90033 -2.49698,1.34338 -3.69173,1.34338 -1.27008,0 -1.79826,-0.59074 -1.57479,-1.75861 l 4.15642,-21.83598 c 0.22342,-1.02226 -0.15062,-1.85827 -1.08428,-2.51578 -0.93374,-0.65742 -2.06253,-0.97701 -3.40775,-0.97701 -1.94269,0 -4.00402,0.73753 -6.1701,2.24711 -1.86742,1.31504 -3.34442,2.8888 -4.46621,4.68961 l -10.42978,16.80443 c -0.15049,0.19462 -0.46954,0.58843 -0.9552,1.19682 -0.48569,0.60856 -0.83501,0.90373 -1.05847,0.90373 -0.22347,0 -0.33561,-0.2711 -0.33561,-0.80603 0,-0.68202 0.1402,-1.78756 0.43887,-3.34623 l 8.0805,-38.93352 c 0.0753,-0.38927 0.1464,-0.93061 0.25816,-1.63647 0.11152,-0.70572 0.18071,-1.27132 0.18072,-1.70976 -10e-6,-2.38624 -1.11479,-3.59043 -3.35612,-3.59048 z m -225.118,0.0732 c -1.27003,4e-5 -2.52498,0.34456 -3.795,1.05027 -1.27002,0.70587 -2.32646,1.73821 -3.14958,3.05313 l -2.78816,4.73846 0.87775,0.2931 3.25285,-4.83616 c 0.29869,-0.38922 0.74509,-0.75819 1.34245,-1.12355 0.59738,-0.36565 1.09756,-0.53725 1.47153,-0.53735 0.82081,10e-5 1.21335,0.46641 1.21336,1.44108 0,0.14567 -0.0583,0.61372 -0.20653,1.39223 l -9.65529,43.52543 -0.20653,1.68532 c 0,1.26596 0.36336,2.15128 1.1101,2.63791 0.74673,0.48647 1.72019,0.73275 2.91724,0.73275 1.64395,0 3.1339,-0.41816 4.4404,-1.22125 1.3065,-0.8031 2.51828,-1.91032 3.6401,-3.32181 l 2.2202,-2.90658 -0.77449,-0.14655 -2.24601,2.83331 c -0.4492,0.53641 -1.11761,1.07642 -2.01367,1.61205 -0.8961,0.5354 -1.70469,0.80602 -2.45255,0.80602 -0.82313,0 -1.23919,-0.49076 -1.23918,-1.4655 0,-0.14561 0.056,-0.56365 0.20653,-1.24567 l 9.65529,-44.25818 c 0.075,-0.24366 0.10325,-0.563 0.10326,-1.00143 -10e-6,-1.07128 -0.36224,-1.98089 -1.1101,-2.68676 -0.74789,-0.70562 -1.69445,-1.05023 -2.81397,-1.05027 z m 283.69515,0 c -1.27003,4e-5 -2.55081,0.34456 -3.82081,1.05027 -1.27002,0.70587 -2.30065,1.73821 -3.12377,3.05313 l -2.81398,4.73846 0.90357,0.2931 3.25286,-4.83616 c 0.29868,-0.38922 0.74508,-0.75819 1.34244,-1.12355 0.59738,-0.36565 1.07175,-0.53725 1.44571,-0.53735 0.82081,10e-5 1.23917,0.46641 1.23919,1.44108 0,0.14567 -0.0842,0.61372 -0.23235,1.39223 l -9.62947,43.52546 -0.23235,1.68533 c 0,1.26596 0.38918,2.15128 1.13592,2.63791 0.74673,0.48647 1.72018,0.73275 2.91724,0.73275 1.64394,0 3.10807,-0.41816 4.41458,-1.22125 1.30649,-0.8031 2.51827,-1.91032 3.6401,-3.32181 l 2.24601,-2.90658 -0.8003,-0.14655 -2.2202,2.8333 c -0.4492,0.53642 -1.11761,1.07643 -2.01367,1.61206 -0.8961,0.53539 -1.7305,0.80602 -2.47837,0.80602 -0.82313,0 -1.23919,-0.49076 -1.23918,-1.4655 0,-0.14561 0.0819,-0.56365 0.23235,-1.24568 l 9.62947,-44.25818 c 0.075,-0.24365 0.12908,-0.56299 0.12908,-1.00142 0,-1.07128 -0.38806,-1.98089 -1.13591,-2.68676 -0.7479,-0.70562 -1.66864,-1.05023 -2.78816,-1.05027 z m -242.05349,1.24567 -5.49886,25.32877 -1.78133,-0.85483 c -1.04659,-0.43843 -1.90906,-0.73364 -2.58163,-0.8793 -1.1948,-0.29229 -2.64378,-0.43965 -4.36295,-0.43965 -1.86742,0 -3.59457,0.22126 -5.16326,0.6839 -1.56873,0.46287 -3.12987,1.12621 -4.69856,2.00285 -2.91398,1.60619 -5.47439,3.79479 -7.64162,6.57034 -2.16724,2.77562 -3.5052,5.4564 -4.02734,8.03584 -0.0753,0.58542 -0.21433,1.46937 -0.43888,2.61348 -0.22463,1.1441 -0.33561,2.20208 -0.33561,3.17525 0,2.23921 0.4884,3.98543 1.49735,5.25139 1.00894,1.26596 2.77811,1.90515 5.31815,1.90515 2.39181,0 4.61803,-0.56568 6.63479,-1.68533 2.01673,-1.11956 4.38533,-3.40587 7.15111,-6.86344 2.01559,-2.53192 4.07693,-5.33544 6.17009,-8.40221 0.74784,-1.07126 1.69441,-2.49792 2.81397,-4.29881 l -2.81397,12.26137 c -0.44925,1.8499 -0.67125,3.44769 -0.67122,4.81174 -3e-5,1.31348 0.34817,2.32213 1.05846,3.0287 0.71023,0.70673 1.94669,1.0747 3.66592,1.0747 2.38951,0 4.36899,-0.83459 5.93774,-2.49135 1.04653,-1.06978 1.85511,-2.5207 2.45255,-4.37208 l -0.77449,-0.2931 c -0.7479,1.75336 -1.51334,2.95734 -2.29765,3.6149 -0.78439,0.65741 -1.88402,0.977 -3.30448,0.977 -1.27003,0 -1.91043,-0.76194 -1.91041,-2.27152 0,-0.48733 0.0571,-1.07721 0.20653,-1.80746 0.14935,-0.73033 0.31418,-1.49297 0.46469,-2.27153 l 9.75856,-44.40473 -4.82765,0 z m 283.66934,0 -5.47305,25.32877 -1.80714,-0.85483 c -1.0466,-0.43843 -1.90906,-0.73364 -2.58163,-0.8793 -1.19479,-0.29229 -2.64379,-0.43965 -4.36295,-0.43965 -1.86742,0 -3.59456,0.22126 -5.16326,0.6839 -1.56873,0.46287 -3.12987,1.12621 -4.69856,2.00285 -2.91399,1.60619 -5.44859,3.79479 -7.61581,6.57034 -2.16724,2.77562 -3.5052,5.4564 -4.02734,8.03584 -0.0753,0.58542 -0.24013,1.46937 -0.46469,2.61348 -0.22463,1.1441 -0.33561,2.20208 -0.33561,3.17525 0,2.23921 0.51421,3.98543 1.52316,5.25139 1.00894,1.26596 2.77811,1.90515 5.31815,1.90515 2.39182,0 4.5922,-0.56568 6.60897,-1.68533 2.01674,-1.11956 4.41114,-3.40587 7.17693,-6.86344 2.01559,-2.53192 4.07692,-5.33544 6.17009,-8.40221 0.74784,-1.07126 1.6686,-2.49792 2.78816,-4.29881 l -2.78816,12.26137 c -0.44919,1.8499 -0.67124,3.44769 -0.67122,4.81174 -2e-5,1.31348 0.34817,2.32213 1.05847,3.0287 0.71022,0.70673 1.92087,1.0747 3.64009,1.0747 2.38952,0 4.369,-0.83459 5.93775,-2.49135 1.04653,-1.06978 1.88093,-2.5207 2.47836,-4.37208 l -0.8003,-0.2931 c -0.74792,1.75336 -1.51334,2.95734 -2.29765,3.6149 -0.7844,0.65741 -1.88402,0.977 -3.30449,0.977 -1.27003,0 -1.91043,-0.76194 -1.9104,-2.27152 0,-0.48733 0.0829,-1.07721 0.23234,-1.80746 0.14934,-0.73033 0.28838,-1.49297 0.43888,-2.27153 l 9.75856,-44.40473 -4.82765,0 z m -59.66143,0.95262 c -1.12183,5e-5 -2.08127,0.29533 -2.86561,0.90373 -0.78436,0.60849 -1.18756,1.27184 -1.18755,2.00285 -1e-5,0.82766 0.38918,1.54106 1.13592,2.12498 0.74672,0.5841 1.72016,0.87935 2.91724,0.8793 1.04654,5e-5 1.92413,-0.29523 2.63326,-0.90373 0.70907,-0.60839 1.05845,-1.3219 1.05847,-2.10055 -2e-5,-0.78002 -0.33419,-1.44327 -1.00684,-2.02728 -0.67264,-0.5841 -1.56538,-0.87925 -2.68489,-0.8793 z m 108.55747,0 c -1.12183,5e-5 -2.08127,0.29533 -2.8656,0.90373 -0.78437,0.60849 -1.16174,1.27184 -1.16174,2.00285 0,0.82766 0.36336,1.54106 1.1101,2.12498 0.74673,0.5841 1.72017,0.87935 2.91724,0.8793 1.04655,5e-5 1.92414,-0.29523 2.63326,-0.90373 0.70907,-0.60839 1.05846,-1.3219 1.05847,-2.10055 -10e-6,-0.78002 -0.33418,-1.44327 -1.00683,-2.02728 -0.67264,-0.5841 -1.56539,-0.87925 -2.6849,-0.8793 z m 23.7768,21.32306 c -1.19478,0 -2.33538,0.0737 -3.38193,0.21983 -1.04658,0.14638 -2.13334,0.41694 -3.25285,0.80603 -2.0179,0.72958 -3.54989,1.68905 -4.5953,2.88215 -1.04542,1.19319 -1.54899,2.47068 -1.54898,3.83473 -10e-6,2.62853 1.56114,4.74424 4.69856,6.35051 l 9.52621,4.81174 c 1.94263,0.97325 2.91722,2.47279 2.91724,4.46978 -2e-5,1.70428 -0.76658,3.17952 -2.29765,4.42093 -1.5311,1.2415 -3.63448,1.85631 -6.32499,1.85631 -1.27002,0 -2.42463,-0.14714 -3.43356,-0.41523 -1.00895,-0.26817 -1.9157,-0.6132 -2.73653,-1.05028 0.3739,-0.73103 0.56795,-1.51716 0.56796,-2.3448 0,-0.34023 -0.0819,-0.7832 -0.23235,-1.34338 -0.1505,-0.56017 -0.3445,-1.00314 -0.56795,-1.34338 -0.5974,-1.02374 -1.36395,-1.83414 -2.29765,-2.41807 -0.93371,-0.5841 -2.03447,-0.87931 -3.30449,-0.87931 -0.74784,0 -1.1101,0.68774 -1.1101,2.05171 0,1.02225 0.20805,1.98163 0.61959,2.90658 0.41156,0.92495 1.02614,1.71178 1.88459,2.3448 0.85847,0.63294 1.95922,1.24795 3.30449,1.83188 2.61526,1.12035 5.42689,1.68533 8.41611,1.68533 3.88528,0 7.0754,-0.88528 9.57784,-2.66233 2.50238,-1.77705 3.76915,-3.81805 3.76917,-6.10626 -2e-5,-1.26596 -0.41723,-2.47014 -1.23918,-3.59048 -0.822,-1.12035 -2.0478,-2.07895 -3.69173,-2.90658 l -10.66212,-5.34909 c -2.61529,-1.31496 -3.92409,-2.71743 -3.92408,-4.22553 -10e-6,-1.36405 0.98861,-2.54388 2.96888,-3.54163 1.98025,-0.99772 4.10945,-1.48993 6.3508,-1.48993 1.34524,0 2.54188,0.22294 3.58847,0.65948 -3e-5,1.65677 0.61454,3.20472 1.88458,4.64075 1.26999,1.43612 2.99713,2.14941 5.16326,2.14941 0.67262,8e-5 1.00681,-0.3681 1.00684,-1.09913 -3e-5,-0.87524 -0.34826,-1.83528 -1.05847,-2.88215 -0.71029,-1.04672 -1.589,-1.8828 -2.63326,-2.51578 -2.24137,-1.16936 -4.88698,-1.75856 -7.95142,-1.75861 z m 227.31243,0.0732 c -1.94039,5e-5 -4.14192,1.00859 -6.60897,3.05313 -1.27008,1.02226 -2.38485,2.12803 -3.3562,3.29738 -0.67271,0.82772 -1.59332,2.1061 -2.78812,3.81031 l -8.51937,12.7743 c -0.74794,1.02225 -1.27626,1.58856 -1.57479,1.73417 -0.15,-0.14561 -0.26283,-0.26953 -0.33562,-0.41522 0,-0.53634 0.14035,-1.32255 0.43888,-2.34481 l 4.49204,-17.39063 c 0.0764,-0.1961 0.10326,-0.46587 0.10326,-0.80602 0,-1.02226 -0.43118,-1.83401 -1.29081,-2.44251 -0.85956,-0.60854 -1.96152,-0.90368 -3.30449,-0.90372 -1.57101,4e-5 -3.01889,0.44308 -4.36295,1.31895 -1.34413,0.87597 -2.40172,2.10493 -3.14959,3.7126 l -1.88459,4.10341 0.77449,0.14655 1.78133,-3.66375 c 0.52214,-1.16936 1.27468,-2.12748 2.24601,-2.85773 0.97133,-0.73013 1.86174,-1.07466 2.6849,-1.07471 0.97132,5e-5 1.47145,0.51638 1.47152,1.58763 0,0.1471 -0.0816,0.56522 -0.23234,1.24568 l -5.03418,20.00411 c -0.22354,0.87664 -0.33561,1.63851 -0.33561,2.27153 0,0.97325 0.22343,1.73582 0.67122,2.27153 0.44802,0.53578 1.14561,0.80602 2.11694,0.80602 0.67257,0 1.50703,-0.63919 2.47836,-1.90515 0.29868,-0.38932 1.07928,-1.54503 2.34929,-3.44393 l 10.09416,-14.97255 c 0.82315,-1.21688 1.82573,-2.49659 3.02055,-3.85916 1.86736,-2.19161 3.48226,-3.29738 4.8276,-3.29738 1.12204,0 1.6781,0.39385 1.6781,1.1724 0,0.43832 -0.10995,1.15025 -0.33565,2.12498 l -4.15646,18.12338 c 0,0.19462 -0.0818,0.4658 -0.23231,0.85488 l 0,0.73275 c 0,1.12043 0.3188,2.10337 0.95516,2.93101 0.63612,0.82771 1.51362,1.24567 2.63335,1.24567 1.64389,0 3.24483,-0.46669 4.77597,-1.3678 1.53105,-0.90119 2.82583,-2.05678 3.87244,-3.46836 l 2.2202,-2.90658 -0.77449,-0.21982 -2.58163,3.05313 c -0.67271,0.82764 -1.35541,1.49137 -2.0653,1.954 -0.7103,0.46271 -1.33666,0.6839 -1.85877,0.6839 -0.89824,0 -1.34245,-0.66338 -1.34245,-1.97842 0,-0.19486 0.0157,-0.41554 0.0512,-0.65948 0.038,-0.2437 0.1055,-0.66151 0.18076,-1.29453 l 4.26006,-19.66212 c 0.22338,-1.02226 -0.11079,-1.95668 -1.00688,-2.80888 -0.89601,-0.8521 -1.92445,-1.27005 -3.04624,-1.2701 z m -361.78946,0.0732 c -1.27002,4e-5 -2.52498,0.3445 -3.79499,1.05027 -1.27003,0.70581 -2.32875,1.71374 -3.14959,3.02871 l -2.78815,4.76288 0.87775,0.2931 3.25285,-4.83616 c 0.29869,-0.38923 0.74509,-0.75815 1.34245,-1.12355 0.59738,-0.36555 1.09756,-0.56177 1.47153,-0.56177 0.8208,0 1.21335,0.49084 1.21336,1.4655 0,0.14569 -0.0583,0.61359 -0.20653,1.39223 l -4.93091,19.71108 -0.23235,1.68533 c 0,1.26596 0.38918,2.15058 1.13592,2.63791 0.74673,0.48717 1.69665,0.73275 2.89142,0.73275 1.64394,0 3.13276,-0.41738 4.44041,-1.22125 1.30762,-0.8038 2.51826,-1.91024 3.64009,-3.32181 l 2.24602,-2.90658 -0.80031,-0.14655 -2.2202,2.8333 c -0.4469,0.53501 -1.14227,1.07643 -2.03948,1.61206 -0.89724,0.53539 -1.70469,0.80602 -2.45255,0.80602 -0.82088,0 -1.23919,-0.49225 -1.23918,-1.4655 0,-0.1471 0.0819,-0.56514 0.23234,-1.24568 l 4.93092,-20.44376 c 0.075,-0.2437 0.10325,-0.58745 0.10326,-1.02585 -1e-5,-1.07126 -0.36338,-1.95652 -1.1101,-2.66233 -0.74675,-0.70568 -1.69218,-1.05023 -2.81398,-1.05028 z m 108.5833,0 c -1.27002,4e-5 -2.5508,0.3445 -3.82081,1.05027 -1.27002,0.70581 -2.30294,1.71374 -3.12377,3.02871 l -2.81398,4.76288 0.90357,0.2931 3.25285,-4.83616 c 0.2987,-0.38923 0.74509,-0.75815 1.34245,-1.12355 0.59739,-0.36555 1.07174,-0.56177 1.44571,-0.56177 0.82081,0 1.23918,0.49084 1.23918,1.4655 0,0.14569 -0.0842,0.61359 -0.23234,1.39223 l -4.93091,19.71101 -0.20653,1.68532 c -10e-6,1.26596 0.36336,2.15058 1.1101,2.63791 0.74673,0.48717 1.72245,0.73275 2.91724,0.73275 1.64394,0 3.10693,-0.41738 4.41458,-1.22125 1.30764,-0.8038 2.51827,-1.91024 3.6401,-3.32181 l 2.24602,-2.90658 -0.77449,-0.14655 -2.24602,2.83331 c -0.44691,0.535 -1.11645,1.07642 -2.01367,1.61205 -0.89723,0.5354 -1.7305,0.80603 -2.47836,0.80603 -0.82089,0 -1.21338,-0.49226 -1.21337,-1.46551 0,-0.14709 0.056,-0.56513 0.20653,-1.24567 l 4.93091,-20.44377 c 0.075,-0.2437 0.12907,-0.58745 0.12908,-1.02585 -10e-6,-1.07126 -0.38919,-1.95652 -1.13591,-2.66233 -0.74674,-0.70567 -1.66636,-1.05023 -2.78816,-1.05027 z m -398.88742,0.14662 c -3.36089,5e-5 -6.42599,0.56499 -9.19059,1.68533 -2.76463,1.12037 -5.18821,2.81662 -7.2802,5.10484 -2.092,2.28821 -3.53983,4.9448 -4.36295,7.96256 -0.22346,0.82764 -0.33561,1.73629 -0.33561,2.76003 0,3.21246 0.97459,5.9417 2.91724,8.18239 2.31658,2.72654 5.63288,4.10341 9.96509,4.10341 6.42758,0 11.58091,-1.52381 15.46395,-4.54306 3.21263,-2.53192 5.46571,-6.02286 6.73805,-10.50277 0.0729,-0.29115 0.14523,-0.73424 0.25816,-1.31895 0.11254,-0.58464 0.18068,-1.12621 0.18072,-1.61205 -4e-5,-3.8959 -1.44901,-6.79634 -4.36295,-8.69532 -2.01792,-1.31491 -3.81178,-2.15065 -5.34398,-2.5402 -1.53225,-0.38942 -3.07824,-0.58616 -4.64693,-0.58621 z m 571.95979,0 c -3.36091,5e-5 -6.42603,0.56499 -9.1906,1.68533 -2.76464,1.12037 -5.18819,2.81662 -7.28019,5.10484 -2.09199,2.28821 -3.53988,4.9448 -4.36295,7.96256 -0.22354,0.82764 -0.33561,1.73629 -0.33561,2.76003 0,3.21246 0.97459,5.9417 2.91724,8.18239 2.31662,2.72654 5.63285,4.10341 9.96508,4.10341 6.42758,0 11.58091,-1.52381 15.46396,-4.54306 3.21258,-2.53192 5.46571,-6.02286 6.73805,-10.50277 0.0728,-0.29115 0.1453,-0.73424 0.25816,-1.31895 0.11068,-0.58464 0.18072,-1.12621 0.18072,-1.61205 0,-3.8959 -1.44897,-6.79634 -4.36296,-8.69532 -2.01786,-1.31491 -3.81176,-2.15065 -5.34397,-2.5402 -1.5322,-0.38942 -3.07824,-0.58616 -4.64693,-0.58621 z m -633.86724,0.2931 -2.91724,0.29311 c -0.8961,0.0489 -2.69444,0.0984 -5.42142,0.17097 -2.72702,0.0726 -4.9274,0.19556 -6.60897,0.36638 -1.68158,0.17091 -3.37955,0.53974 -5.05999,1.09912 -1.68044,0.55948 -3.33858,2.57608 -4.98254,6.05741 -1.64395,3.48133 -2.45255,7.24287 -2.45255,11.28437 0,3.45757 0.47439,5.94154 1.44571,7.44964 1.49347,2.3373 4.41724,3.51721 8.75172,3.51721 6.27482,0 11.54032,-2.53235 15.79957,-7.59619 l -1.34245,-0.43965 c -1.71921,1.84989 -3.3342,3.20234 -4.82764,4.07898 -2.01791,1.16795 -4.32932,1.7586 -6.94458,1.7586 -4.25924,0 -6.84881,-1.57359 -7.74489,-4.73845 -0.14819,-0.87665 -0.20654,-1.61432 -0.20653,-2.19826 0,-1.21687 0.1402,-2.61801 0.43888,-4.17668 0.0752,-0.48584 0.21541,-1.12637 0.43888,-1.954 l 8.85498,0.43965 c 3.58429,0 6.41221,-0.51656 8.46774,-1.51436 2.05548,-0.99771 3.09793,-2.30025 3.09796,-3.908 l 1.21336,-9.98985 z m 191.11796,0 c -3.88532,0 -7.25546,0.61482 -10.09417,1.88073 -3.43613,1.46062 -6.22193,3.67353 -8.39029,6.59476 -1.86742,2.43532 -3.28836,5.31142 -4.25969,8.6709 -0.59739,2.04459 -0.90357,3.79088 -0.90357,5.20253 0,2.43524 0.58542,4.35282 1.78133,5.76431 1.1959,1.41157 2.9219,2.12498 5.16325,2.12498 2.46478,0 4.66631,-0.49233 6.60897,-1.4655 0.89606,-0.4384 2.17684,-1.32286 3.82081,-2.63791 2.09311,-1.70428 4.54471,-4.16398 7.38346,-7.37636 0.89606,-1.02226 2.06466,-2.39889 3.4852,-4.15226 l -3.14959,8.54877 c -0.0753,0.19469 -0.21549,0.53985 -0.43888,1.0747 -3e-5,0.4874 -3e-5,0.95383 0,1.39223 -3e-5,1.50958 0.64037,2.71532 1.91041,3.59048 0.97129,0.68187 2.1141,1.02585 3.45938,1.02585 4.03347,0 7.29144,-2.33547 9.75856,-7.00999 l -0.90357,-0.43965 c -0.8984,1.70436 -1.59486,2.85984 -2.11694,3.49278 -0.82087,1.02234 -1.57344,1.5881 -2.24602,1.68533 -0.67266,0.0977 -1.31304,0.14655 -1.9104,0.14655 -2.09316,0 -3.1238,-0.95875 -3.12377,-2.85773 -8e-5,-0.73103 0.16817,-1.73957 0.54214,-3.05313 l 6.84132,-21.32306 -4.25969,0 -0.43888,1.1724 c -0.8984,-0.48735 -1.6767,-0.83131 -2.34928,-1.02585 -2.01564,-0.68186 -4.07698,-1.02586 -6.17009,-1.02586 z m 467.1973,0 c -1.49572,0 -2.81856,0.41807 -3.97571,1.24568 -1.15713,0.82767 -2.11774,1.83477 -2.8656,3.05313 l -2.34928,4.10341 0.90357,0.2931 1.9104,-3.22411 c 0.29868,-0.43832 0.74538,-1.05254 1.34245,-1.83187 0.59736,-0.7795 1.34765,-1.17241 2.24601,-1.17241 1.04436,0 1.54898,0.51504 1.54898,1.53878 0,0.14569 -0.029,0.41675 -0.10326,0.7816 -0.0749,0.36485 -0.10327,0.6843 -0.10327,0.977 l -5.16326,23.44805 10.09417,0 5.36979,-20.95669 c 0.30094,-1.21688 0.71711,-2.29846 1.23918,-3.22411 0.82083,-1.46065 1.90755,-2.44492 3.25285,-2.97985 0.15073,0.58393 0.3582,1.10057 0.61959,1.5632 0.26104,0.46287 0.66794,0.90685 1.265,1.34338 1.12177,0.87656 2.54275,1.31895 4.25969,1.31895 0.89829,0 1.63445,-0.27043 2.19438,-0.7816 0.56008,-0.51109 0.85187,-1.02828 0.85194,-1.5632 -7e-5,-0.97466 -0.61242,-1.85909 -1.80714,-2.68676 -1.19486,-0.82766 -2.42173,-1.24568 -3.69173,-1.24568 -1.27233,0 -2.44091,0.24544 -3.4852,0.73276 -0.67265,0.29276 -1.56306,0.85898 -2.68489,1.73417 -1.41825,1.12035 -2.50499,3.0622 -3.25285,5.78874 l -5.49887,20.22394 -2.78816,0 4.36295,-22.20237 c 0,-0.2437 0.0816,-0.6132 0.23235,-1.09913 l 0,-0.95257 c 0,-1.55867 -0.33404,-2.63999 -1.00684,-3.27296 -0.67265,-0.63298 -1.64723,-0.95258 -2.91724,-0.95258 z m -597.64699,0.29311 c 3.43609,0 6.02567,1.03284 7.74489,3.1264 1.34524,1.65528 2.01364,3.91645 2.01367,6.79016 0,1.36249 -0.19407,2.78938 -0.56796,4.24996 -0.89612,3.74887 -2.65127,6.99447 -5.26652,9.77002 -2.83875,3.11593 -6.01259,4.68961 -9.52621,4.68961 -2.98695,0 -5.21763,-0.81177 -6.71224,-2.44251 -1.49461,-1.63073 -2.24601,-3.84356 -2.24601,-6.61918 0,-1.55719 0.30614,-3.35186 0.90357,-5.39794 1.4205,-4.43074 3.09152,-7.77506 5.03417,-10.01427 2.31658,-2.77554 5.18651,-4.15225 8.62264,-4.15225 z m 571.95979,0 c 3.43612,0 6.0257,1.03284 7.74488,3.1264 1.34509,1.65528 2.01367,3.91645 2.01367,6.79016 0,1.36249 -0.19442,2.78938 -0.56795,4.24996 -0.89611,3.74887 -2.6513,6.99447 -5.26653,9.77002 -2.83876,3.11593 -6.01261,4.68961 -9.5262,4.68961 -2.98702,0 -5.21768,-0.81177 -6.71224,-2.44251 -1.49463,-1.63073 -2.24602,-3.84356 -2.24602,-6.61918 0,-1.55719 0.3065,-3.35186 0.90357,-5.39794 1.42051,-4.43074 3.09152,-7.77506 5.03418,-10.01427 2.31655,-2.77554 5.18651,-4.15225 8.62264,-4.15225 z m -440.83888,0.5862 c 1.26998,4e-5 2.57879,0.19591 3.92408,0.61062 1.34523,0.41457 2.57216,0.98021 3.69173,1.70976 l -2.45255,7.37636 c -0.89611,2.04451 -2.92943,4.79958 -6.06683,8.25566 -2.46709,2.67902 -4.66634,4.84179 -6.60897,6.49706 -1.49348,1.26596 -2.80227,2.10228 -3.92407,2.49136 -0.67036,0.24339 -1.53508,0.36638 -2.58163,0.36638 -1.34527,0 -2.26485,-0.41801 -2.78816,-1.27011 -0.52331,-0.85218 -0.80031,-2.05623 -0.8003,-3.6149 0,-1.02226 0.166,-2.30065 0.46469,-3.81031 0.0752,-0.48584 0.21541,-1.2236 0.43888,-2.19825 1.12179,-4.33281 2.79282,-7.8737 5.03417,-10.64932 3.06217,-3.84681 6.96052,-5.76427 11.66896,-5.76431 z m -75.66753,0.21982 c 1.12179,0 2.18158,0.0983 3.22704,0.31753 1.0454,0.21917 2.24317,0.58864 3.58846,1.12355 l 1.47153,0.80603 -3.69173,6.79016 c -1.0466,1.55867 -2.35539,3.57473 -3.92408,6.00856 -1.19479,1.80089 -2.58546,3.64558 -4.15642,5.54448 -1.27003,1.6552 -2.66297,3.03191 -4.15642,4.15226 -2.16611,1.65528 -4.14332,2.49143 -5.93774,2.49136 -1.34527,7e-5 -2.28001,-0.41801 -2.8398,-1.27011 -0.55975,-0.85218 -0.85194,-2.08199 -0.85193,-3.68818 0,-0.82764 0.083,-1.76153 0.23234,-2.76003 0.14934,-0.99849 0.31868,-1.98218 0.54215,-2.95543 0.67262,-2.97024 1.72908,-5.62526 3.14958,-7.96256 1.79216,-3.06677 4.10584,-5.35378 6.94458,-6.86344 2.16836,-1.16783 4.31157,-1.73418 6.40244,-1.73418 z m 283.66934,0 c 1.12179,0 2.20739,0.0983 3.25285,0.31753 1.0454,0.21917 2.24317,0.58864 3.58846,1.12355 l 1.44572,0.80603 -3.69173,6.79016 c -1.0466,1.55867 -2.35539,3.57473 -3.92408,6.00856 -1.19479,1.80089 -2.58546,3.64558 -4.15642,5.54448 -1.27004,1.6552 -2.63716,3.03191 -4.13061,4.15226 -2.16611,1.65528 -4.14331,2.49143 -5.93774,2.49136 -1.34527,7e-5 -2.30582,-0.41801 -2.86561,-1.27011 -0.55975,-0.85218 -0.82613,-2.08199 -0.82612,-3.68818 0,-0.82764 0.0572,-1.76153 0.20653,-2.76003 0.14934,-0.99849 0.34449,-1.98218 0.56796,-2.95543 0.67263,-2.97024 1.70325,-5.62526 3.12377,-7.96256 1.79214,-3.06677 4.13165,-5.35378 6.9704,-6.86344 2.16835,-1.16783 4.28575,-1.73418 6.37662,-1.73418 z m -409.42046,0.14655 4.69856,0 0,3.63933 c -1e-5,6.62103 -2.6199,9.941 -7.84815,9.941 l -8.85498,-0.43965 c 0.52212,-2.28971 0.9405,-4.01025 1.23918,-5.17811 1.04655,-3.50517 1.99199,-5.57106 2.81397,-6.17954 0.82197,-0.6084 1.96476,-1.05061 3.45939,-1.34338 1.49458,-0.29276 2.99854,-0.43965 4.49203,-0.43965 z" style="font-size:15.39167881px;font-style:normal;font-variant:normal;font-weight:normal;font-stretch:normal;text-align:start;line-height:125%;letter-spacing:0px;word-spacing:0px;writing-mode:lr-tb;text-anchor:start;fill:#ffffff;fill-opacity:1;stroke:none;font-family:Tango;-inkscape-font-specification:Tango"/>
      <path transform="matrix(0.82612111,0,0,0.7816014,81.538115,172.83545)" inkscape:connector-curvature="0" id="path4532" d="m 30.152848,291.56481 c -10.23832,0 -19.76833,3.33906 -27.5625,8.96875 0.23122,-0.003 0.45554,-0.0312 0.6875,-0.0312 l 990.687452,0 c 25.9661,0 47.4062,21.44013 47.4062,47.40625 l 0,680.56249 c 0,15.7278 -7.8705,29.7894 -19.8437,38.4376 25.6527,-0.3783 46.7187,-21.6409 46.7187,-47.375 l 0,-680.56259 c 0,-25.96612 -21.4401,-47.40625 -47.4062,-47.40625 l -990.687452,0 z" style="fill:#ffffff;fill-opacity:0.5372549;stroke:none;filter:url(#filter4626)"/>
    </g>
  </g>
</svg>