<?xml version="1.0" encoding="UTF-8" standalone="no"?>
<!-- Created with Inkscape (http://www.inkscape.org/) -->

<svg
   xmlns:dc="http://purl.org/dc/elements/1.1/"
   xmlns:cc="http://creativecommons.org/ns#"
   xmlns:rdf="http://www.w3.org/1999/02/22-rdf-syntax-ns#"
   xmlns:svg="http://www.w3.org/2000/svg"
   xmlns="http://www.w3.org/2000/svg"
   xmlns:xlink="http://www.w3.org/1999/xlink"
   xmlns:sodipodi="http://sodipodi.sourceforge.net/DTD/sodipodi-0.dtd"
   xmlns:inkscape="http://www.inkscape.org/namespaces/inkscape"
   width="284.18912"
   height="152.11354"
   id="svg2"
   version="1.1"
   inkscape:version="0.48.3.1 r9886"
   sodipodi:docname="3kings_camels_star.pdf">
  <defs
     id="defs4">
    <linearGradient
       inkscape:collect="always"
       id="linearGradient3756">
      <stop
         style="stop-color:#000001;stop-opacity:1"
         offset="0"
         id="stop3758" />
      <stop
         id="stop3764"
         offset="0.40138343"
         style="stop-color:#00002b;stop-opacity:1" />
      <stop
         style="stop-color:#000087;stop-opacity:1"
         offset="1"
         id="stop3766" />
      <stop
         id="stop3768"
         offset="1"
         style="stop-color:#004ac9;stop-opacity:1" />
      <stop
         style="stop-color:#0000ff;stop-opacity:0.36274511"
         offset="1"
         id="stop3760" />
    </linearGradient>
    <inkscape:perspective
       id="perspective9"
       inkscape:persp3d-origin="372.04724 : 350.78739 : 1"
       inkscape:vp_z="744.09448 : 526.18109 : 1"
       inkscape:vp_y="0 : 1000 : 0"
       inkscape:vp_x="0 : 526.18109 : 1"
       sodipodi:type="inkscape:persp3d" />
    <filter
       id="filter4357"
       inkscape:label="Combined lighting"
       inkscape:menu="Bevels"
       inkscape:menu-tooltip="Basic specular bevel to use for building textures"
       color-interpolation-filters="sRGB">
      <feGaussianBlur
         id="feGaussianBlur4359"
         stdDeviation="6"
         in="SourceGraphic"
         result="result0" />
      <feDiffuseLighting
         id="feDiffuseLighting4361"
         lighting-color="#ffffff"
         diffuseConstant="1"
         surfaceScale="4"
         result="result5">
        <feDistantLight
           id="feDistantLight4363"
           elevation="45"
           azimuth="235" />
      </feDiffuseLighting>
      <feComposite
         id="feComposite4365"
         in2="SourceGraphic"
         k1="1.4"
         in="result5"
         result="fbSourceGraphic"
         operator="arithmetic"
         k2="0"
         k3="0"
         k4="0" />
      <feGaussianBlur
         id="feGaussianBlur4367"
         result="result0"
         in="fbSourceGraphic"
         stdDeviation="6" />
      <feSpecularLighting
         id="feSpecularLighting4369"
         specularExponent="25"
         specularConstant="1"
         surfaceScale="4"
         lighting-color="#ffffff"
         result="result1"
         in="result0">
        <feDistantLight
           id="feDistantLight4371"
           azimuth="235"
           elevation="45" />
      </feSpecularLighting>
      <feComposite
         id="feComposite4373"
         in2="result1"
         k3="1"
         k2="1"
         operator="arithmetic"
         result="result4"
         in="fbSourceGraphic"
         k1="0"
         k4="0" />
      <feComposite
         id="feComposite4375"
         in2="SourceGraphic"
         operator="in"
         result="result2"
         in="result4" />
    </filter>
    <filter
       inkscape:collect="always"
       id="filter4459"
       color-interpolation-filters="sRGB">
      <feGaussianBlur
         inkscape:collect="always"
         stdDeviation="8.3589911"
         id="feGaussianBlur4461" />
    </filter>
    <filter
       inkscape:collect="always"
       id="filter4626"
       color-interpolation-filters="sRGB">
      <feGaussianBlur
         inkscape:collect="always"
         stdDeviation="4.6025001"
         id="feGaussianBlur4628" />
    </filter>
    <linearGradient
       inkscape:collect="always"
       xlink:href="#linearGradient3756"
       id="linearGradient4643"
       gradientUnits="userSpaceOnUse"
       x1="518.86139"
       y1="308.26682"
       x2="518.86139"
       y2="1054.7008" />
    <linearGradient
       inkscape:collect="always"
       xlink:href="#linearGradient3756"
       id="linearGradient4656"
       gradientUnits="userSpaceOnUse"
       x1="518.86139"
       y1="308.26682"
       x2="518.86139"
       y2="1054.7008" />
    <filter
       inkscape:collect="always"
       id="filter10796"
       color-interpolation-filters="sRGB">
      <feGaussianBlur
         inkscape:collect="always"
         stdDeviation="5.1747551"
         id="feGaussianBlur10798" />
    </filter>
  </defs>
  <sodipodi:namedview
     id="base"
     pagecolor="#ffffff"
     bordercolor="#666666"
     borderopacity="1.0"
     inkscape:pageopacity="0.0"
     inkscape:pageshadow="2"
     inkscape:zoom="1.5136762"
     inkscape:cx="127.7851"
     inkscape:cy="108.79785"
     inkscape:document-units="px"
     inkscape:current-layer="layer1"
     showgrid="false"
     inkscape:window-width="1317"
     inkscape:window-height="744"
     inkscape:window-x="49"
     inkscape:window-y="24"
     inkscape:window-maximized="1"
     showguides="true"
     inkscape:guide-bbox="true"
     units="pt"
     fit-margin-top="0"
     fit-margin-left="0"
     fit-margin-right="0"
     fit-margin-bottom="0" />
  <metadata
     id="metadata7">
    <rdf:RDF>
      <cc:Work
         rdf:about="">
        <dc:format>image/svg+xml</dc:format>
        <dc:type
           rdf:resource="http://purl.org/dc/dcmitype/StillImage" />
        <dc:title></dc:title>
      </cc:Work>
    </rdf:RDF>
  </metadata>
  <g
     inkscape:label="Layer 1"
     inkscape:groupmode="layer"
     id="layer1"
     transform="translate(-4.3141997,-873.89424)">
    <path
       style="fill:#ffffff;fill-opacity:1;stroke:none;filter:url(#filter4459)"
       d="M 780.37406,595.05836 540.12447,482.08713 537.25618,899.47034 523.72856,482.3423 248.07301,615.02166 515.28119,469.88951 351.80673,380.08056 l 171.42301,77.10101 5.5674,-132.81275 10.82851,132.55759 128.55564,-59.74325 -120.10827,72.19603 z"
       id="path3770"
       inkscape:connector-curvature="0"
       sodipodi:nodetypes="ccccccccccccc"
       transform="matrix(0.42242783,0,0,0.39966318,-1.9615347,641.52492)" />
    <g
       id="g10916"
       transform="matrix(1.0669693,0,0,1.0669693,-20.730614,-50.013513)">
      <path
         transform="matrix(0.14522332,0,0,0.13739723,178.98202,824.03644)"
         sodipodi:nodetypes="ccccccccccccc"
         inkscape:connector-curvature="0"
         id="path3880"
         d="M 540.0876,864.40223 523.04772,482.53403 273.91489,606.74035 515.44168,469.35998 298.67873,349.66808 l 224.36899,106.51786 7.60603,-138.9467 7.60604,138.9467 127.67208,-58.16941 -120.06604,71.34345 204.97064,110.25806 -212.57668,-97.08401 z"
         style="opacity:0.75;fill:#000000;fill-opacity:1;stroke:none;filter:url(#filter10796)" />
      <path
         inkscape:connector-curvature="0"
         id="path4345"
         d="m 175.96023,1007.2051 c 0.14221,-0.1302 0.51131,-0.1441 0.82024,-0.03 0.34139,0.1247 0.23999,0.2178 -0.25855,0.2367 -0.45114,0.017 -0.7039,-0.076 -0.56169,-0.2058 z m 44.36635,-0.9468 c -1.87644,-0.4722 -2.97068,-1.1667 -2.97068,-1.8858 0,-0.3802 -0.18333,-0.8592 -0.4074,-1.0642 -0.48835,-0.4471 -0.55171,-1.9687 -0.27286,-6.55228 0.14268,-2.34512 0.0664,-3.35779 -0.2399,-3.18446 -0.31054,0.17568 -0.31508,0.0249 -0.0147,-0.48895 0.29559,-0.50558 0.29193,-0.97582 -0.0111,-1.47211 -0.33798,-0.55282 -0.31888,-0.65729 0.079,-0.43228 0.40436,0.22875 0.41678,0.11222 0.0542,-0.50807 -0.58163,-0.9948 -0.6147,-2.4234 -0.0561,-2.4234 0.22799,0 0.30367,-0.2645 0.16818,-0.5876 -0.13551,-0.32324 -0.0535,-0.5876 0.18226,-0.5876 0.5858,0 -0.32476,-2.55056 -1.57336,-4.4071 -0.91482,-1.36023 -2.18729,-1.98695 -2.18729,-1.07728 0,0.21547 -0.14444,0.35429 -0.32098,0.30853 -0.17653,-0.0457 -0.74139,0.13038 -1.25523,0.39149 -0.65341,0.33201 -0.92336,0.82631 -0.89795,1.64415 0.0881,2.83886 -3.26079,3.93079 -10.44394,3.40526 -2.9152,-0.21323 -3.17174,0.10669 -2.00149,2.49989 1.05543,2.1578 1.05317,2.15613 1.96362,1.50203 0.69673,-0.50058 0.70886,-0.48687 0.14739,0.1671 -0.54793,0.63816 -0.49193,0.80193 0.53581,1.56687 0.72142,0.53703 1.20098,1.32788 1.29116,2.12912 0.079,0.70107 0.2711,1.39148 0.42708,1.53432 0.156,0.14271 0.28362,0.94146 0.28362,1.77498 0,0.83353 0.28266,1.91039 0.62812,2.39289 0.34545,0.4826 0.715,1.6897 0.82118,2.6824 l 0.19309,1.8049 -1.24914,-0.4316 c -0.68704,-0.2375 -1.24915,-0.5797 -1.24915,-0.7606 0,-0.181 -0.24072,-0.2022 -0.53495,-0.047 -0.29421,0.1549 -0.39741,0.1423 -0.2293,-0.028 0.16809,-0.1706 -0.25531,-1.285 -0.94092,-2.4766 -0.9062,-1.5751 -1.13827,-2.35195 -0.85,-2.84491 0.28193,-0.48216 0.17125,-0.9452 -0.38287,-1.60152 -0.42869,-0.50793 -1.07332,-1.71665 -1.43249,-2.6861 -1.34821,-3.63933 -6.63004,-9.79347 -8.40529,-9.79347 -0.18945,0 -0.78202,0.8551 -1.31683,1.90033 -0.74272,1.45161 -0.93686,2.42313 -0.82207,4.11387 0.0827,1.21746 0.0245,2.25728 -0.12927,2.31077 -0.30726,0.10668 0.56501,4.74954 1.31627,7.00573 0.3294,0.9891 0.85475,1.5681 1.72076,1.8965 1.29668,0.4917 2.00793,1.4898 1.42909,2.0056 -0.18424,0.1642 -0.82316,0.4088 -1.41982,0.5434 -0.83448,0.1885 -1.55255,-0.082 -3.11158,-1.1715 -1.11473,-0.7793 -1.92333,-1.5698 -1.79689,-1.7572 0.1265,-0.1871 0.037,-0.4496 -0.19864,-0.5828 -0.23569,-0.133 -0.41585,-1.24728 -0.40036,-2.47554 0.0679,-5.38286 -0.0497,-7.91309 -0.36817,-7.91309 -0.18813,0 -0.38242,-0.44655 -0.43177,-0.99245 -0.0493,-0.54575 -0.3595,-1.47127 -0.68923,-2.05651 -0.5179,-0.91943 -0.51229,-1.26387 0.0412,-2.53108 0.35238,-0.80673 0.8115,-1.37016 1.02025,-1.25206 0.20876,0.11805 0.86263,-0.22744 1.45304,-0.76789 0.93555,-0.85636 1.066,-1.2995 1.01519,-3.44878 -0.0321,-1.35639 -0.14114,-2.02544 -0.24244,-1.48681 -0.48654,2.58732 -1.12124,4.03196 -2.11736,4.81929 -1.02183,0.80767 -2.5692,3.12151 -2.67147,3.9948 -0.11112,0.94852 -0.92022,0.52206 -1.52562,-0.80416 -1.05424,-2.30968 -0.85007,-3.26495 1.05177,-4.92101 0.94151,-0.81982 1.71182,-1.70413 1.71182,-1.9651 0,-0.26099 0.29489,-0.77282 0.65532,-1.13737 0.36044,-0.36456 0.71825,-1.57857 0.79514,-2.69779 0.0769,-1.11924 0.33195,-2.21081 0.56673,-2.42573 0.25323,-0.2318 0.29804,-1.03584 0.11015,-1.97644 -0.20162,-1.00933 -0.0905,-2.46083 0.30569,-3.99352 0.34235,-1.32433 0.65713,-2.78982 0.69955,-3.25664 0.0424,-0.46682 0.15474,-0.77769 0.24966,-0.69081 0.34422,0.3151 2.19361,-2.37074 1.98124,-2.87732 -0.11999,-0.28628 -0.0432,-0.42153 0.17058,-0.30056 0.21383,0.12095 0.74121,-0.18986 1.17196,-0.69071 0.43076,-0.50085 2.13124,-1.72483 3.77887,-2.71996 1.64763,-0.99512 3.18826,-2.15159 3.42364,-2.56992 0.23538,-0.41833 0.79585,-1.35546 1.24549,-2.08254 0.60958,-0.98569 0.84532,-2.23952 0.92673,-4.92935 0.0601,-1.98407 0.23313,-3.79095 0.38459,-4.01529 0.15148,-0.22435 0.0774,-0.4079 -0.16438,-0.4079 -0.24188,0 -0.32146,-0.2822 -0.17687,-0.62714 0.1446,-0.34494 -0.006,-0.78294 -0.33438,-0.97334 -0.46325,-0.26851 -0.47159,-0.34755 -0.0371,-0.35221 0.30811,-0.003 0.45388,-0.16347 0.32393,-0.35594 -0.28522,-0.42244 1.76025,-0.94919 2.36262,-0.60842 0.23412,0.13246 0.30858,0.57855 0.16546,0.99134 -0.41057,1.18409 0.35132,0.88044 1.80276,-0.71852 2.48402,-2.73644 3.01561,-3.23182 3.46812,-3.23182 0.65645,0 1.50376,-2.63644 1.23876,-3.8545 -0.36414,-1.67372 0.67884,-2.58072 3.0341,-2.63855 1.11235,-0.0273 2.23941,0.10392 2.50455,0.2915 0.57794,0.40896 0.77911,6.20155 0.21537,6.20155 -0.66624,0 -0.92532,1.80535 -0.44141,3.07601 0.25349,0.66561 0.65451,1.17129 0.89116,1.12372 0.90252,-0.18142 1.40894,1.18575 0.81533,2.20107 -0.31111,0.53212 -0.428,1.17138 -0.25974,1.4206 0.16826,0.24919 0.40165,1.0152 0.51865,1.70223 0.28169,1.65405 0.55086,1.84844 0.59957,0.43301 0.11985,-3.48083 0.12234,-3.48746 1.35352,-3.61711 1.10304,-0.1161 1.17186,-0.0367 1.06989,1.23497 -0.06,0.7475 -0.27852,1.26353 -0.48571,1.14673 -0.2084,-0.11749 -0.29401,0.83439 -0.19159,2.13042 0.18396,2.3279 1.53066,4.74818 2.29193,4.11899 0.18667,-0.15428 0.19755,-0.0553 0.0242,0.2201 -0.38335,0.60878 1.42707,2.10273 2.23302,1.84268 0.30645,-0.0989 0.44474,-0.0139 0.30732,0.19026 -0.35593,0.52717 1.77852,1.71222 2.57807,1.43137 0.3671,-0.12899 0.56285,-0.0795 0.43499,0.10987 -0.21873,0.32396 1.83434,0.86026 3.89802,1.01825 0.8427,0.0644 0.94138,-0.14311 1.06989,-2.25109 0.0779,-1.27717 0.0621,-2.39432 -0.0351,-2.48255 -0.49575,-0.45025 -0.4005,-2.82709 0.15634,-3.90122 0.98107,-1.89248 4.4386,-2.68018 6.80511,-1.55039 0.67178,0.3207 1.39395,0.48549 1.60483,0.3662 0.21087,-0.11929 0.38953,-0.0743 0.39702,0.10004 0.0306,0.71481 1.26468,1.7568 2.19809,1.8561 2.41218,0.25661 3.63466,0.75293 4.607,1.87042 1.01763,1.16955 1.02251,1.20868 0.21398,1.72031 -0.45505,0.28795 -1.10934,0.74808 -1.454,1.02252 -0.34468,0.27444 -0.97055,0.44565 -1.39086,0.38048 -0.66314,-0.10281 -0.7642,0.19251 -0.7642,2.23342 0,2.35866 -0.5172,3.25662 -1.40674,2.44237 -0.66438,-0.60816 -1.17956,-0.54434 -0.90439,0.11209 0.12635,0.30139 -0.006,0.68119 -0.29354,0.844 -0.35664,0.20176 -0.41301,0.13273 -0.17703,-0.21678 0.22486,-0.33304 0.17878,-0.41805 -0.13148,-0.24252 -0.32885,0.18605 -0.34943,0.57912 -0.0661,1.26139 0.23752,0.57183 0.25553,1.27028 0.0425,1.651 -0.203,0.36295 -0.29118,1.53662 -0.19593,2.60818 0.13023,1.4654 -0.0601,2.36351 -0.76816,3.62356 -0.5177,0.92141 -1.07311,1.67528 -1.23422,1.67528 -0.16111,0 -0.51688,0.68421 -0.79059,1.52048 -0.27372,0.83626 -0.78353,1.73764 -1.13292,2.00307 -0.34938,0.26542 -0.53108,0.63688 -0.40375,0.82545 0.12733,0.18858 -0.0267,0.25219 -0.34225,0.14135 -0.33247,-0.1168 -1.10662,0.45774 -1.84103,1.36629 -0.69701,0.86232 -1.50802,1.57201 -1.80225,1.57709 -0.29421,0.006 -0.53493,0.18555 -0.53493,0.401 0,0.21546 -0.37379,0.39174 -0.83066,0.39174 -0.45685,0 -0.94446,0.16859 -1.08358,0.37463 -0.13912,0.20605 -0.56723,0.26423 -0.95138,0.12927 -0.50437,-0.17717 -0.60109,-0.10115 -0.34813,0.2735 0.23572,0.34913 0.18521,0.42543 -0.15443,0.23329 -0.29859,-0.16892 -0.97631,0.20637 -1.65927,0.91882 -0.63498,0.6624 -1.48541,1.20436 -1.88987,1.20436 -0.40445,0 -0.85543,0.17785 -1.0022,0.39524 -0.41823,0.61942 0.2051,1.95517 0.91236,1.95517 0.35109,0 0.53236,0.15701 0.4028,0.3489 -0.12955,0.19188 0.20795,0.61489 0.75005,0.94002 1.28689,0.77184 2.10091,3.28738 2.24504,6.93766 0.0639,1.61592 0.40302,3.92696 0.75378,5.13582 0.35075,1.20872 0.54798,2.80747 0.43825,3.55276 -0.10973,0.7454 0.0711,2.0738 0.40167,2.9524 0.98459,2.616 -0.66549,3.8889 -2.55608,1.9718 -0.97947,-0.9932 -2.43279,-3.5628 -1.81846,-3.2153 0.21932,0.1247 0.42156,-0.1814 0.44945,-0.6789 0.0768,-1.36961 -0.0909,-2.05392 -0.56986,-2.32617 -0.26727,-0.15185 -0.21889,-0.31188 0.12622,-0.41718 0.60568,-0.18483 0.69522,-2.07259 0.23795,-5.01667 -0.28451,-1.83165 -1.69133,-4.74082 -2.89325,-5.98265 -0.65023,-0.67184 -0.71265,-0.67461 -0.97798,-0.0416 -0.15588,0.37174 -0.16619,1.39466 -0.0229,2.27294 0.17196,1.05396 0.0482,1.97062 -0.364,2.69635 -0.93097,1.63906 -0.76239,7.76778 0.24156,8.78278 0.41243,0.417 0.63557,0.8628 0.49588,0.9906 -0.1397,0.1275 -0.12719,0.5984 0.0279,1.0456 0.20088,0.5792 0.64256,0.813 1.53692,0.813 1.03976,0 1.25503,0.1614 1.25503,0.941 0,1.1196 -1.74671,1.8291 -3.44863,1.401 z m 9.41024,-42.26101 c 1.22874,-1.57957 1.13106,-5.15311 -0.12207,-4.46578 -0.26954,0.14785 -0.21902,-0.0368 0.11237,-0.41058 0.77751,-0.87688 0.27038,-1.29724 -1.88626,-1.56357 -0.94149,-0.11624 -2.45481,-0.49659 -3.3629,-0.84517 -1.9105,-0.73336 -2.25353,-0.6013 -1.55251,0.59768 0.27684,0.4735 0.41543,1.28186 0.30798,1.79636 -0.10751,0.5145 -0.0382,0.93545 0.15386,0.93545 0.19208,0 0.48028,0.66105 0.64046,1.469 0.16016,0.80796 0.54512,1.73343 0.85543,2.05662 2.20255,2.2939 2.32776,2.37211 3.15171,1.96845 0.44898,-0.21995 1.21489,-0.91226 1.70201,-1.53846 z"
         style="fill:#000000;stroke:none" />
      <path
         style="fill:#000000;stroke:none"
         d="m 91.775493,1000.4605 c 0.124406,-0.1067 0.447326,-0.1192 0.717593,-0.025 0.298668,0.1025 0.209954,0.1793 -0.226201,0.1948 -0.394665,0.014 -0.615799,-0.062 -0.491392,-0.1695 z m 38.813747,-0.77952 c -1.64161,-0.38863 -2.5989,-0.9603 -2.5989,-1.55219 0,-0.31313 -0.16039,-0.70731 -0.35641,-0.8762 -0.42722,-0.36785 -0.48266,-1.62036 -0.23871,-5.39353 0.12481,-1.93044 0.0581,-2.76396 -0.20987,-2.62139 -0.27167,0.14464 -0.27565,0.0208 -0.0129,-0.40236 0.25859,-0.41621 0.2554,-0.80332 -0.01,-1.21191 -0.29569,-0.455 -0.27898,-0.54104 0.0691,-0.3558 0.35375,0.18829 0.36461,0.0928 0.0473,-0.41828 -0.50884,-0.81884 -0.53778,-1.99487 -0.0491,-1.99487 0.19946,0 0.26567,-0.21766 0.14715,-0.48371 -0.11853,-0.26603 -0.0468,-0.4837 0.15944,-0.4837 0.51247,0 -0.28412,-2.09949 -1.37644,-3.62774 -0.80033,-1.11971 -1.91354,-1.6356 -1.91354,-0.88679 0,0.17736 -0.12636,0.29164 -0.2808,0.25397 -0.15444,-0.0377 -0.64861,0.10737 -1.09815,0.32227 -0.57163,0.27329 -0.8078,0.68019 -0.78558,1.35341 0.0771,2.33682 -2.85268,3.23569 -9.13683,2.80317 -2.55035,-0.17554 -2.77478,0.0883 -1.751,2.05774 0.92334,1.77637 0.92137,1.77485 1.71788,1.23643 0.60952,-0.41205 0.62014,-0.40069 0.12893,0.13717 -0.47935,0.52525 -0.43036,0.66006 0.46876,1.28991 0.63113,0.44198 1.05066,1.0929 1.12956,1.75254 0.069,0.57707 0.23718,1.14541 0.37364,1.2629 0.13646,0.11777 0.24812,0.77519 0.24812,1.46116 0,0.68611 0.24727,1.57256 0.5495,1.96993 0.30222,0.39722 0.62552,1.39078 0.71842,2.20795 l 0.16892,1.48569 -1.09282,-0.35525 c -0.60104,-0.19535 -1.09281,-0.47717 -1.09281,-0.62611 0,-0.14894 -0.2106,-0.1664 -0.46799,-0.0388 -0.2574,0.12747 -0.34767,0.11777 -0.20061,-0.0236 0.14705,-0.14035 -0.22336,-1.0577 -0.82316,-2.03864 -0.79279,-1.29657 -0.99581,-1.93598 -0.74361,-2.3418 0.24663,-0.39695 0.1498,-0.77811 -0.33497,-1.31846 -0.37503,-0.41801 -0.93897,-1.41294 -1.2532,-2.211 -1.17948,-2.9959 -5.80025,-8.06171 -7.35334,-8.06171 -0.16574,0 -0.68415,0.70393 -1.15201,1.5643 -0.64978,1.19489 -0.81962,1.99463 -0.71919,3.38637 0.0723,1.00215 0.0214,1.85812 -0.11307,1.90218 -0.26881,0.0887 0.4943,3.90978 1.15153,5.76692 0.28817,0.81427 0.74777,1.29089 1.5054,1.5612 1.1344,0.40471 1.75664,1.22646 1.25024,1.65098 -0.16119,0.13578 -0.72014,0.3364 -1.24213,0.44738 -0.73003,0.15504 -1.35825,-0.0679 -2.72216,-0.96459 -0.97521,-0.64136 -1.682608,-1.29213 -1.572002,-1.44634 0.110619,-0.15407 0.03245,-0.37007 -0.17378,-0.4798 -0.206185,-0.10946 -0.363805,-1.02667 -0.350252,-2.03768 0.05937,-4.43101 -0.04358,-6.514 -0.322091,-6.514 -0.164577,0 -0.334559,-0.36757 -0.377733,-0.8169 -0.04314,-0.44932 -0.314503,-1.21107 -0.60297,-1.69289 -0.453079,-0.75682 -0.448177,-1.04037 0.03607,-2.08345 0.308276,-0.66409 0.709928,-1.12788 0.892557,-1.03066 0.182635,0.0973 0.754666,-0.18723 1.271181,-0.63211 0.81846,-0.70494 0.93258,-1.06973 0.88814,-2.83895 -0.0281,-1.11654 -0.12348,-1.6673 -0.2121,-1.2239 -0.42564,2.12981 -0.980908,3.31898 -1.852358,3.96711 -0.893952,0.66484 -2.247655,2.56953 -2.337143,3.28838 -0.09721,0.78088 -0.805038,0.4298 -1.334667,-0.66198 -0.922297,-1.90122 -0.743678,-2.68757 0.920137,-4.05079 0.823663,-0.67487 1.497579,-1.40279 1.497579,-1.61762 0,-0.21485 0.257981,-0.63616 0.573306,-0.93624 0.315318,-0.30012 0.628355,-1.29945 0.69563,-2.22076 0.06731,-0.92131 0.290387,-1.81988 0.495792,-1.99681 0.221545,-0.1908 0.260746,-0.85267 0.09636,-1.62694 -0.176396,-0.83085 -0.0792,-2.02567 0.267425,-3.28735 0.299499,-1.09017 0.574899,-2.29651 0.611999,-2.68078 0.037,-0.38427 0.13539,-0.64016 0.21841,-0.56864 0.30115,0.25937 1.91907,-1.95154 1.73328,-2.36854 -0.10498,-0.23566 -0.0379,-0.347 0.14923,-0.24742 0.18707,0.0996 0.64845,-0.15627 1.02529,-0.56856 0.37685,-0.41228 1.86451,-1.41984 3.30593,-2.23899 1.44142,-0.81916 2.78925,-1.77113 2.99515,-2.11549 0.20592,-0.34436 0.69625,-1.11578 1.08962,-1.7143 0.5333,-0.8114 0.73952,-1.84351 0.81075,-4.0577 0.0526,-1.63323 0.20395,-3.12061 0.33646,-3.30528 0.13251,-0.18468 0.0678,-0.33577 -0.14381,-0.33577 -0.21161,0 -0.28124,-0.23231 -0.15474,-0.51624 0.12651,-0.28393 -0.005,-0.64449 -0.29254,-0.80123 -0.40527,-0.22102 -0.41256,-0.28609 -0.0325,-0.28992 0.26955,-0.003 0.39707,-0.13453 0.28338,-0.29301 -0.24952,-0.34773 1.53997,-0.78133 2.06693,-0.50082 0.20483,0.10904 0.26996,0.47624 0.14476,0.81603 -0.35918,0.97472 0.30735,0.72475 1.57714,-0.59145 2.17313,-2.25258 2.63819,-2.66035 3.03406,-2.66035 0.5743,0 1.31557,-2.17026 1.08373,-3.17292 -0.31856,-1.37775 0.59389,-2.12438 2.65438,-2.17198 0.97313,-0.0224 1.95913,0.0855 2.1911,0.23995 0.50561,0.33666 0.68158,5.10495 0.1884,5.10495 -0.58285,0 -0.8095,1.48611 -0.38616,2.53208 0.22176,0.54791 0.5726,0.96416 0.77963,0.92501 0.78956,-0.14933 1.23262,0.97607 0.71328,1.81186 -0.27217,0.43803 -0.37443,0.96425 -0.22723,1.16939 0.1472,0.20514 0.35139,0.83569 0.45375,1.40123 0.24643,1.36157 0.48191,1.5216 0.52453,0.35645 0.10481,-2.86533 0.10699,-2.87079 1.18412,-2.97751 0.96499,-0.0956 1.0252,-0.0302 0.93599,1.01659 -0.0524,0.61534 -0.24366,1.04012 -0.42493,0.94397 -0.18231,-0.0967 -0.25721,0.68684 -0.16761,1.7537 0.16093,1.91627 1.3391,3.90858 2.00509,3.39064 0.16331,-0.12705 0.17283,-0.0454 0.0212,0.18117 -0.33536,0.50113 1.24847,1.73091 1.95356,1.51685 0.26809,-0.0815 0.38907,-0.0111 0.26886,0.15662 -0.31138,0.43394 1.55593,1.40944 2.25541,1.17827 0.32116,-0.10613 0.49241,-0.0655 0.38056,0.0903 -0.19137,0.26669 1.60475,0.70815 3.41016,0.8382 0.73723,0.0531 0.82356,-0.11777 0.93599,-1.85303 0.0682,-1.05133 0.0543,-1.97094 -0.0307,-2.04357 -0.4337,-0.37063 -0.35036,-2.32718 0.13678,-3.21137 0.85828,-1.55783 3.88309,-2.20625 5.95342,-1.27624 0.5877,0.264 1.21949,0.39965 1.40398,0.30145 0.18449,-0.0982 0.34079,-0.0611 0.34733,0.0823 0.0268,0.58843 1.1064,1.44617 1.92298,1.5279 2.11029,0.21124 3.17977,0.6198 4.03042,1.53968 0.89028,0.96274 0.89453,0.99494 0.1872,1.41611 -0.39809,0.23703 -0.9705,0.6158 -1.27203,0.84171 -0.30153,0.22591 -0.84908,0.36685 -1.21678,0.3132 -0.58014,-0.0847 -0.66854,0.15847 -0.66854,1.83848 0,1.94159 -0.45248,2.68078 -1.23069,2.01051 -0.58123,-0.50063 -1.03194,-0.44809 -0.79122,0.0923 0.11054,0.24809 -0.005,0.56073 -0.25679,0.69475 -0.31201,0.16608 -0.36132,0.10932 -0.15487,-0.17844 0.19671,-0.27415 0.1564,-0.34413 -0.11505,-0.19964 -0.2877,0.15316 -0.30571,0.4767 -0.0578,1.03834 0.20779,0.47072 0.22355,1.04566 0.0373,1.35908 -0.17758,0.29875 -0.25472,1.26489 -0.17141,2.14697 0.11393,1.20626 -0.0526,1.94557 -0.67202,2.98281 -0.45291,0.75849 -0.9388,1.37904 -1.07975,1.37904 -0.14095,0 -0.45219,0.56323 -0.69165,1.25162 -0.23945,0.68838 -0.68547,1.43038 -0.99112,1.64886 -0.30566,0.2185 -0.46462,0.52427 -0.35323,0.6795 0.11138,0.15523 -0.0234,0.20759 -0.2994,0.11638 -0.29086,-0.0961 -0.96814,0.37681 -1.61063,1.12471 -0.60977,0.70982 -1.31929,1.29403 -1.57668,1.29821 -0.2574,0.004 -0.46799,0.15274 -0.46799,0.3301 0,0.17736 -0.32702,0.32246 -0.7267,0.32246 -0.39968,0 -0.82627,0.13878 -0.94798,0.30839 -0.1217,0.1696 -0.49624,0.21751 -0.83229,0.10641 -0.44126,-0.14584 -0.52588,-0.0833 -0.30457,0.22513 0.20622,0.2874 0.16203,0.35022 -0.13511,0.19203 -0.26121,-0.13903 -0.85412,0.16988 -1.45159,0.75636 -0.55552,0.54527 -1.29953,0.99139 -1.65336,0.99139 -0.35382,0 -0.74838,0.14641 -0.87677,0.32534 -0.36588,0.5099 0.17943,1.60946 0.79818,1.60946 0.30715,0 0.46572,0.12927 0.35238,0.2872 -0.11335,0.15795 0.18194,0.50616 0.65617,0.7738 1.12584,0.63537 1.83797,2.70598 1.96409,5.71077 0.0558,1.33023 0.35256,3.23268 0.65943,4.22776 0.30686,0.99494 0.4794,2.31104 0.3834,2.92454 -0.096,0.61351 0.0621,1.7071 0.3514,2.43033 0.86137,2.15337 -0.5822,3.20121 -2.23617,1.62313 -0.85689,-0.81759 -2.12833,-2.93285 -1.59089,-2.64674 0.19187,0.10252 0.36881,-0.14936 0.3932,-0.55892 0.0672,-1.12739 -0.0795,-1.69074 -0.49852,-1.91478 -0.23384,-0.1247 -0.19151,-0.25674 0.11035,-0.34347 0.52989,-0.15199 0.60822,-1.70598 0.20818,-4.12953 -0.2489,-1.50771 -1.47966,-3.90244 -2.53115,-4.92479 -0.56886,-0.55307 -0.62346,-0.55526 -0.85559,-0.0344 -0.13638,0.3061 -0.14538,1.14802 -0.02,1.87098 0.15043,0.86761 0.0421,1.62216 -0.31846,2.21959 -0.81444,1.34922 -0.66697,6.39415 0.21133,7.22976 0.36081,0.34319 0.55602,0.71021 0.43382,0.81551 -0.12222,0.1053 -0.11123,0.49241 0.0244,0.86055 0.17574,0.47689 0.56213,0.6692 1.34457,0.6692 0.90963,0 1.09794,0.13301 1.09794,0.77464 0,0.92164 -1.52808,1.50578 -3.01702,1.1533 z m 8.2325,-34.78797 c 1.07496,-1.30026 0.98951,-4.2419 -0.10679,-3.67611 -0.23583,0.12164 -0.19161,-0.0303 0.0982,-0.33799 0.68019,-0.72182 0.23654,-1.06784 -1.65018,-1.28708 -0.82367,-0.0957 -2.14759,-0.40877 -2.94203,-0.69571 -1.6714,-0.60368 -1.97149,-0.49498 -1.35822,0.49198 0.2422,0.38977 0.36344,1.05521 0.26945,1.47872 -0.094,0.42352 -0.0334,0.77003 0.13462,0.77003 0.16802,0 0.42016,0.54416 0.56029,1.20925 0.14013,0.66508 0.4769,1.42691 0.74837,1.69294 1.9269,1.88828 2.03644,1.95266 2.75727,1.62039 0.39279,-0.18106 1.06283,-0.75095 1.48899,-1.26642 z"
         id="path4349"
         inkscape:connector-curvature="0" />
      <path
         inkscape:connector-curvature="0"
         id="path4351"
         d="m 23.49946,1008.3361 c 0.09549,-0.093 0.343316,-0.1025 0.550741,-0.022 0.229218,0.089 0.161134,0.1546 -0.173603,0.1679 -0.302905,0.014 -0.472611,-0.054 -0.377138,-0.1461 z m 29.788823,-0.6717 c -1.259909,-0.3349 -1.994604,-0.8275 -1.994604,-1.3375 0,-0.2698 -0.123089,-0.6094 -0.27354,-0.7548 -0.327886,-0.3172 -0.370436,-1.3964 -0.183202,-4.6476 0.09579,-1.66347 0.04456,-2.38172 -0.161077,-2.25882 -0.208509,0.12469 -0.211556,0.018 -0.0098,-0.3468 0.198464,-0.35857 0.196011,-0.6922 -0.0076,-1.04412 -0.226936,-0.3921 -0.214106,-0.46623 0.053,-0.30662 0.271499,0.16225 0.279838,0.079 0.03634,-0.36037 -0.390514,-0.70564 -0.412739,-1.71901 -0.03769,-1.71901 0.153072,0 0.203891,-0.18759 0.112934,-0.41676 -0.09097,-0.2293 -0.03593,-0.4169 0.122368,-0.4169 0.393313,0 -0.218066,-1.80907 -1.056395,-3.12586 -0.614241,-0.96487 -1.468618,-1.40934 -1.468618,-0.76411 0,0.15282 -0.09697,0.25119 -0.215501,0.21877 -0.118531,-0.0319 -0.497797,0.0928 -0.842807,0.27766 -0.438719,0.23554 -0.619972,0.58607 -0.602921,1.16619 0.05923,2.0137 -2.189369,2.78821 -7.012346,2.4155 -1.957339,-0.1513 -2.129589,0.0762 -1.34385,1.77318 0.708638,1.53058 0.70713,1.52934 1.31843,1.06533 0.467802,-0.35511 0.475956,-0.34527 0.09895,0.11915 -0.367893,0.45251 -0.330294,0.56875 0.35976,1.11132 0.484387,0.38102 0.806364,0.94187 0.866916,1.51021 0.053,0.49726 0.182027,0.98706 0.286767,1.08836 0.104731,0.1011 0.190428,0.6678 0.190428,1.259 0,0.5912 0.189778,1.355 0.421723,1.6974 0.231959,0.3422 0.480071,1.1985 0.551379,1.9026 l 0.129643,1.2801 -0.83872,-0.3061 c -0.46129,-0.1684 -0.838711,-0.4111 -0.838711,-0.5394 0,-0.1288 -0.16163,-0.1434 -0.359173,-0.033 -0.197549,0.1095 -0.266836,0.1011 -0.153964,-0.019 0.112864,-0.1205 -0.171428,-0.9114 -0.631754,-1.7566 -0.608453,-1.1172 -0.764273,-1.6681 -0.57072,-2.018 0.189295,-0.3419 0.114984,-0.6703 -0.257075,-1.1359 -0.287828,-0.3601 -0.720646,-1.2175 -0.961808,-1.90526 -0.90523,-2.58135 -4.451591,-6.94656 -5.643552,-6.94656 -0.127204,0 -0.525067,0.60658 -0.884154,1.34797 -0.498682,1.02958 -0.629033,1.71873 -0.55196,2.9179 0.05548,0.86359 0.01643,1.6011 -0.08677,1.63906 -0.206313,0.0762 0.379363,3.36899 0.883778,4.96919 0.221169,0.7017 0.573901,1.1124 1.155361,1.3453 0.870628,0.3487 1.348193,1.0567 0.959542,1.4226 -0.123712,0.1164 -0.552697,0.2899 -0.953307,0.3855 -0.560298,0.133 -1.042432,-0.058 -2.08922,-0.831 -0.748454,-0.5527 -1.291368,-1.1136 -1.206479,-1.2464 0.08489,-0.1331 0.02487,-0.3189 -0.133369,-0.4135 -0.158251,-0.094 -0.279222,-0.8846 -0.268815,-1.7558 0.04563,-3.81812 -0.03343,-5.61291 -0.247198,-5.61291 -0.126317,0 -0.25677,-0.31673 -0.289905,-0.70384 -0.03316,-0.38725 -0.241375,-1.04371 -0.462765,-1.45881 -0.347736,-0.65216 -0.343968,-0.89643 0.02763,-1.79535 0.236599,-0.57222 0.544854,-0.9718 0.685024,-0.88798 0.140171,0.0831 0.579193,-0.16141 0.97561,-0.54478 0.628148,-0.60741 0.715736,-0.92164 0.68163,-2.44626 -0.02153,-0.96211 -0.09477,-1.43664 -0.162777,-1.05452 -0.326681,1.83511 -0.752839,2.85984 -1.42166,3.41834 -0.686087,0.57291 -1.725033,2.21405 -1.793705,2.83352 -0.07461,0.6728 -0.617855,0.37035 -1.024339,-0.57042 -0.707843,-1.63823 -0.570755,-2.31575 0.706187,-3.49053 0.632151,-0.5815 1.149361,-1.20872 1.149361,-1.39382 0,-0.18511 0.198002,-0.54811 0.440007,-0.80679 0.241999,-0.25854 0.482248,-1.11963 0.533881,-1.91353 0.05165,-0.79386 0.222869,-1.56811 0.380517,-1.72056 0.170025,-0.16444 0.200114,-0.73475 0.07395,-1.40192 -0.135378,-0.71592 -0.06078,-1.74549 0.205244,-2.83264 0.229861,-0.93937 0.441218,-1.97885 0.469692,-2.30996 0.02849,-0.33113 0.103913,-0.55162 0.167637,-0.49 0.231117,0.22351 1.47284,-1.68159 1.330247,-2.04091 -0.08057,-0.20306 -0.02905,-0.299 0.11454,-0.2132 0.143571,0.0858 0.49767,-0.13467 0.786895,-0.4899 0.289218,-0.35528 1.430977,-1.22345 2.537234,-1.92931 1.106266,-0.70585 2.140692,-1.52614 2.298723,-1.82286 0.158037,-0.29672 0.534361,-0.96145 0.83626,-1.47718 0.409296,-0.69916 0.567568,-1.58851 0.622233,-3.49643 0.04039,-1.40732 0.156529,-2.68897 0.25823,-2.84809 0.101696,-0.15913 0.05207,-0.28932 -0.11037,-0.28932 -0.162402,0 -0.215841,-0.20017 -0.118753,-0.44484 0.09708,-0.24467 -0.0043,-0.55533 -0.224528,-0.69039 -0.311038,-0.19045 -0.316629,-0.24652 -0.02494,-0.24982 0.206872,-0.003 0.304746,-0.11597 0.217492,-0.25248 -0.191506,-0.29963 1.181887,-0.67326 1.58633,-0.43156 0.157195,0.0939 0.207184,0.41037 0.11109,0.70316 -0.275664,0.8399 0.235891,0.62451 1.21043,-0.50963 1.667833,-1.941 2.024758,-2.29238 2.328585,-2.29238 0.440758,0 1.009671,-1.87005 0.831741,-2.73403 -0.244486,-1.18718 0.455799,-1.83052 2.037176,-1.87154 0.746867,-0.0194 1.503601,0.0737 1.681632,0.20676 0.388049,0.29008 0.523105,4.39881 0.144599,4.39881 -0.447334,0 -0.621277,1.28055 -0.296374,2.18186 0.170202,0.47211 0.439463,0.83079 0.598351,0.79705 0.605973,-0.12871 0.946009,0.84107 0.547432,1.56124 -0.208891,0.37745 -0.287368,0.83088 -0.174389,1.00765 0.112961,0.17675 0.269678,0.72009 0.348234,1.2074 0.189132,1.17324 0.369854,1.31112 0.402565,0.30714 0.08044,-2.46898 0.08212,-2.47369 0.908794,-2.56565 0.74061,-0.0824 0.786817,-0.0261 0.718357,0.87598 -0.04024,0.53021 -0.187,0.89623 -0.326122,0.81339 -0.139929,-0.0833 -0.1974,0.59184 -0.128631,1.51113 0.123504,1.6512 1.02773,3.36792 1.538861,2.92163 0.125334,-0.10945 0.132636,-0.0392 0.01629,0.15612 -0.257387,0.43181 0.95818,1.49148 1.499315,1.30703 0.205753,-0.0701 0.298612,-0.01 0.206348,0.13495 -0.238973,0.37392 1.194143,1.21448 1.730984,1.01527 0.246483,-0.0914 0.377911,-0.0564 0.292073,0.0779 -0.146873,0.2298 1.231621,0.61019 2.617234,0.72225 0.565818,0.0457 0.632066,-0.10155 0.718351,-1.5967 0.05229,-0.90592 0.04173,-1.69833 -0.02353,-1.76091 -0.33286,-0.31936 -0.268893,-2.00527 0.10498,-2.76716 0.658713,-1.34236 2.980189,-1.90108 4.569133,-1.09971 0.451046,0.22747 0.935935,0.34436 1.077522,0.25974 0.141595,-0.0847 0.261553,-0.0526 0.266576,0.0709 0.02062,0.50703 0.84914,1.24613 1.475858,1.31655 1.619605,0.18202 2.440415,0.53406 3.093275,1.3267 0.683268,0.82958 0.686533,0.85733 0.143662,1.22024 -0.30552,0.20425 -0.74484,0.53062 -0.976261,0.72529 -0.231413,0.19466 -0.651655,0.3161 -0.933859,0.26987 -0.445243,-0.0729 -0.513093,0.13661 -0.513093,1.58418 0,1.67303 -0.347263,2.30996 -0.944529,1.73241 -0.446079,-0.43138 -0.791988,-0.38612 -0.607242,0.0795 0.08483,0.21377 -0.0036,0.48317 -0.197081,0.59865 -0.239468,0.14312 -0.277308,0.0942 -0.118863,-0.15376 0.15098,-0.23623 0.120041,-0.29653 -0.08828,-0.17202 -0.220808,0.1319 -0.234623,0.41077 -0.04435,0.89473 0.159469,0.40559 0.17157,0.90101 0.02856,1.17106 -0.136293,0.25743 -0.195495,1.08993 -0.131569,1.85001 0.08744,1.03941 -0.04039,1.67646 -0.515749,2.57023 -0.347611,0.65354 -0.720519,1.18828 -0.828687,1.18828 -0.108181,0 -0.347051,0.48532 -0.530834,1.07849 -0.183776,0.59316 -0.52608,1.23252 -0.760667,1.42079 -0.234595,0.18827 -0.356586,0.45174 -0.271095,0.58552 0.08549,0.1337 -0.01793,0.17885 -0.229792,0.10031 -0.223224,-0.0829 -0.74302,0.32468 -1.23612,0.96918 -0.467992,0.6117 -1.012534,1.11506 -1.210083,1.11866 -0.197543,0 -0.359165,0.13163 -0.359165,0.28445 0,0.15282 -0.250981,0.27779 -0.557727,0.27779 -0.306752,0 -0.634149,0.11916 -0.72756,0.26575 -0.0934,0.14617 -0.380851,0.18746 -0.638768,0.0914 -0.338655,-0.12608 -0.403594,-0.0721 -0.233745,0.19397 0.158272,0.24773 0.12435,0.30177 -0.103692,0.16557 -0.200475,-0.12054 -0.655516,0.14631 -1.114073,0.65161 -0.426347,0.46997 -0.997351,0.85431 -1.268906,0.85431 -0.271556,0 -0.574376,0.12608 -0.672917,0.28042 -0.280801,0.43935 0.137706,1.38677 0.61259,1.38677 0.235736,0 0.357436,0.11084 0.270451,0.24745 -0.087,0.13578 0.139632,0.43616 0.503593,0.66685 0.864061,0.54741 1.410608,2.33168 1.507398,4.92079 0.04287,1.14624 0.270593,2.78544 0.506101,3.6429 0.23551,0.8574 0.367929,1.9914 0.294255,2.52 -0.07367,0.5287 0.04768,1.471 0.269692,2.0942 0.661093,1.8555 -0.44683,2.7584 -1.716212,1.3987 -0.657656,-0.7045 -1.633457,-2.5272 -1.22098,-2.2807 0.147255,0.087 0.283054,-0.1289 0.301779,-0.4816 0.05157,-0.9715 -0.061,-1.4569 -0.382616,-1.6499 -0.179461,-0.108 -0.146971,-0.2212 0.0847,-0.2959 0.406668,-0.1316 0.466788,-1.4701 0.159766,-3.55831 -0.191023,-1.29933 -1.135616,-3.36278 -1.94261,-4.24369 -0.436587,-0.47661 -0.478492,-0.47842 -0.656644,-0.0291 -0.104662,0.2638 -0.111575,0.98925 -0.01538,1.61218 0.115455,0.74762 0.03238,1.39785 -0.244406,1.91257 -0.625074,1.16258 -0.511897,5.50975 0.162196,6.22965 0.276912,0.2958 0.426731,0.612 0.332944,0.7028 -0.0938,0.09 -0.08536,0.4244 0.0187,0.7415 0.13488,0.4109 0.431429,0.5767 1.031924,0.5767 0.698125,0 0.842659,0.1149 0.842659,0.6675 0,0.7942 -1.172775,1.2975 -2.315505,0.9937 z m 6.31829,-29.97599 c 0.82501,-1.12041 0.759427,-3.65516 -0.08197,-3.16762 -0.180992,0.10488 -0.147056,-0.0262 0.0754,-0.29124 0.522027,-0.62198 0.181537,-0.92015 -1.266485,-1.10905 -0.632151,-0.0824 -1.648228,-0.35224 -2.257949,-0.5995 -1.282765,-0.52017 -1.513081,-0.4265 -1.042403,0.42394 0.18588,0.33587 0.278937,0.90925 0.206793,1.27418 -0.07213,0.36494 -0.02565,0.66352 0.103304,0.66352 0.128964,0 0.322466,0.46889 0.430018,1.04199 0.107544,0.57309 0.366009,1.22953 0.574355,1.45877 1.478854,1.62708 1.562936,1.68255 2.116149,1.39625 0.301468,-0.15601 0.815715,-0.64708 1.14278,-1.09124 z"
         style="fill:#000000;stroke:none" />
    </g>
    <path
       style="fill:#ffffff;fill-opacity:0.5372549;stroke:none;filter:url(#filter4626)"
       d="m 30.152848,291.56481 c -10.23832,0 -19.76833,3.33906 -27.5625,8.96875 0.23122,-0.003 0.45554,-0.0312 0.6875,-0.0312 l 990.687452,0 c 25.9661,0 47.4062,21.44013 47.4062,47.40625 l 0,680.56249 c 0,15.7278 -7.8705,29.7894 -19.8437,38.4376 25.6527,-0.3783 46.7187,-21.6409 46.7187,-47.375 l 0,-680.56259 c 0,-25.96612 -21.4401,-47.40625 -47.4062,-47.40625 l -990.687452,0 z"
       id="path4532"
       inkscape:connector-curvature="0"
       transform="matrix(0.42242783,0,0,0.39966318,-1.9615347,641.52492)" />
  </g>
</svg>
