<?xml version="1.0" encoding="UTF-8" standalone="no"?>
<!-- Created with Inkscape (http://www.inkscape.org/) -->

<svg
   xmlns:dc="http://purl.org/dc/elements/1.1/"
   xmlns:cc="http://creativecommons.org/ns#"
   xmlns:rdf="http://www.w3.org/1999/02/22-rdf-syntax-ns#"
   xmlns:svg="http://www.w3.org/2000/svg"
   xmlns="http://www.w3.org/2000/svg"
   xmlns:sodipodi="http://sodipodi.sourceforge.net/DTD/sodipodi-0.dtd"
   xmlns:inkscape="http://www.inkscape.org/namespaces/inkscape"
   id="svg2440"
   sodipodi:version="0.32"
   inkscape:version="0.48.3.1 r9886"
   width="400"
   height="382"
   version="1.0"
   sodipodi:docname="nativity.svg"
   inkscape:output_extension="org.inkscape.output.svg.inkscape">
  <metadata
     id="metadata2445">
    <rdf:RDF>
      <cc:Work
         rdf:about="">
        <dc:format>image/svg+xml</dc:format>
        <dc:type
           rdf:resource="http://purl.org/dc/dcmitype/StillImage" />
      </cc:Work>
    </rdf:RDF>
  </metadata>
  <defs
     id="defs2443">
    <inkscape:perspective
       sodipodi:type="inkscape:persp3d"
       inkscape:vp_x="0 : 526.18109 : 1"
       inkscape:vp_y="0 : 1000 : 0"
       inkscape:vp_z="744.09448 : 526.18109 : 1"
       inkscape:persp3d-origin="372.04724 : 350.78739 : 1"
       id="perspective2447" />
  </defs>
  <sodipodi:namedview
     inkscape:window-height="715"
     inkscape:window-width="1280"
     inkscape:pageshadow="2"
     inkscape:pageopacity="0.0"
     guidetolerance="10.0"
     gridtolerance="10.0"
     objecttolerance="10.0"
     borderopacity="1.0"
     bordercolor="#666666"
     pagecolor="#ffffff"
     id="base"
     showgrid="false"
     inkscape:zoom="1.2094241"
     inkscape:cx="200"
     inkscape:cy="191"
     inkscape:window-x="49"
     inkscape:window-y="24"
     inkscape:current-layer="svg2440"
     inkscape:window-maximized="0" />
  <path
     style="fill:#000000"
     d="M 3,373.00249 L 3,370 L 14.833333,370 C 21.341667,370 26.95842,369.70825 27.315008,369.35166 C 28.81986,367.84681 22.497866,358.81758 17.81458,355.78291 C 15.104457,354.02681 13,351.90329 13,350.9247 C 13,349.96855 15.273715,347.28258 18.052699,344.95588 C 23.674507,340.24903 27.186018,334.16392 28.875622,326.20078 C 30.26861,319.63559 30.326061,314 29,314 C 26.923759,314 28.13416,308.29506 31.856335,300.53734 C 36.970194,289.87908 38.584922,285.85121 41.091747,277.5 C 42.247421,273.65 44.023078,269.59918 45.03765,268.49818 C 46.078906,267.36822 47.34041,263.66617 47.934099,259.99818 C 51.07436,240.59665 57.646772,214.45062 62.05714,203.81462 C 63.470915,200.40517 64.005981,196.72882 64.021962,190.31462 C 64.045984,180.67333 66.113653,174.19499 69.926866,171.8136 C 72.686181,170.09038 72.540175,168.40512 69.377635,165.47418 C 67.53181,163.76352 66.922653,162.40378 67.320519,160.88233 C 67.631406,159.6935 67.011697,156.42113 65.943388,153.61041 C 63.624111,147.50838 63.385018,135.05771 65.388329,124.70583 C 66.675854,118.05269 66.655183,117.87393 64.3925,116.0941 C 63.121644,115.09444 60.713436,113.70973 59.040927,113.01695 C 54.617734,111.18481 55.109327,108.43523 61.655659,98.392273 C 64.982298,93.288759 67.643155,87.939492 68.117131,85.402421 C 68.560328,83.030104 70.430692,78.931566 72.273495,76.294559 C 74.116299,73.657551 75.919513,70.7125 76.280639,69.75 C 76.773121,68.437396 78.069807,68 81.468615,68 C 83.960877,68 86,67.55 86,67 C 86,66.45 84.719744,66 83.154988,66 C 81.590231,66 79.565231,65.177067 78.654988,64.171259 C 76.931445,62.266767 76.400678,59 77.814788,59 C 78.262921,59 79.393987,57.397013 80.328267,55.437807 C 83.8742,48.001908 99.616821,44.918525 112,49.234513 C 118.31749,51.436388 118.50871,51.605213 118.81019,55.247028 C 119.01434,57.713157 119.78349,59.348943 121.06019,60.032212 C 123.40567,61.287476 123.54216,62.883078 121.4358,64.423284 C 120.0411,65.443118 120.10401,65.862516 122.01646,68.2938 C 123.95833,70.762481 124.05905,71.497442 123.08066,76.059494 C 121.50509,83.406109 121.68188,84.451667 125.05773,87.752183 C 127.86282,90.494681 127.98304,90.874104 126.51273,92.344414 C 124.33138,94.525766 117.92,96.134 114.29526,95.409053 C 111.66259,94.882519 111.16897,95.177865 110.01157,97.972072 C 108.73453,101.05511 108.81684,101.24535 113.47313,105.97272 C 118.09822,110.66842 118.19367,110.88541 116.62141,113.13012 C 114.59002,116.03034 114.5748,119.2052 116.56025,125.89094 C 117.89476,130.3847 118.33836,130.96408 119.62619,129.89527 C 122.38221,127.60798 123.99976,123.15704 124.02196,117.79966 C 124.03499,114.65572 124.86851,110.68218 126.07111,108.03103 C 127.18606,105.5731 128.35877,101.66164 128.67713,99.338905 C 128.9955,97.016168 129.87339,94.878828 130.62799,94.589259 C 131.7418,94.161852 132,89.189186 132,68.166243 C 132,39.295675 131.3637,42.161108 139.75093,33.261589 C 143.70816,29.062657 145.01274,25.664647 144.98635,19.625 C 144.96404,14.520594 144.06647,12.584222 140.63184,10.23077 C 135.0238,6.3880841 126.93572,7.7367555 120.60869,13.569592 C 115.45244,18.323086 112.14571,19.574277 110.11252,17.541096 C 108.7244,16.152968 108.72862,16 110.15509,16 C 111.0261,16 113.93503,14.261678 116.61937,12.137061 C 128.51355,2.7230072 136.68335,1.7346704 144.71165,8.7386125 C 151.20201,14.400841 150.33254,26.503825 142.77873,35.644983 C 135.84595,44.034604 136,43.211674 136,71.85672 C 136,97.267543 136.04176,97.801841 137.98785,97.292927 C 140.42972,96.654362 141.98366,99.755938 139.89572,101.10092 C 138.70284,101.86933 138.70251,102.13046 139.8934,102.89764 C 140.70787,103.42233 141.05848,104.66836 140.73728,105.89665 C 140.43504,107.0524 140.59551,108.25001 141.09388,108.55802 C 142.96693,109.71563 141.9,114.34987 139,117.65278 C 136.53362,120.46183 136,121.94729 136,126.00397 L 136,130.93835 L 130.39339,133.68364 C 127.30976,135.19355 125.26675,136.58892 125.85338,136.78446 C 126.44001,136.98 129.30048,135.77371 132.20999,134.1038 C 135.11949,132.4339 139.1362,130.16943 141.13601,129.07164 C 146.38552,126.18993 150.35962,120.58829 153.36668,111.83203 C 154.81501,107.61464 156.00122,103.56464 156.0027,102.83203 C 156.00677,100.82966 163.17765,93.230105 165.75,92.502048 C 169.20738,91.523496 168.54398,94.065911 164.49997,97.292632 C 160.19133,100.7305 160.07576,102 164.07143,102 C 165.76071,102 167.74685,102.5625 168.48506,103.25 C 169.22327,103.9375 171.23577,105.57879 172.95729,106.89732 C 174.67881,108.21585 176.56612,110.18929 177.15132,111.28275 C 178.1217,113.09592 177.97523,113.2106 175.48671,112.58602 L 172.75809,111.90118 L 173.44032,116.45059 C 173.82339,119.00509 173.72514,121 173.21626,121 C 172.09713,121 169.41388,117.99686 168.8259,116.08622 C 168.5481,115.18355 167.60933,115.99696 166.22913,118.33622 C 163.52628,122.91722 161.57734,123.20083 162.52748,118.87489 C 163.64326,113.79477 161.50965,116.33721 159.09147,122.96928 C 157.88207,126.28618 156.57924,129.00364 156.19628,129.00809 C 155.81333,129.01255 152.86827,131.43342 149.6517,134.38781 C 145.441,138.25532 143.84284,140.42315 143.94423,142.12972 C 144.02169,143.43337 144.17843,148.83856 144.29253,154.14125 C 144.46427,162.12215 144.83719,164.15573 146.45796,165.94978 C 148.82899,168.57429 147.61727,171.33929 143.89787,171.7916 C 142.57904,171.95198 140.4875,172.59052 139.25,173.21058 L 137,174.33796 L 137,254.58861 L 137,334.83927 L 141.75,336.37206 C 151.48087,339.51216 158.58498,340.22021 163.5266,338.54249 C 166.02541,337.69412 168.95417,337 170.03495,337 C 172.74958,337 172.54149,335.22578 168.58511,324.63837 C 166.70692,319.61227 164.85132,313.7 164.46156,311.5 C 164.0718,309.3 162.95928,306.6 161.9893,305.5 C 161.01932,304.4 159.27492,301.60543 158.11285,299.28984 C 156.26702,295.61174 156.0007,293.33696 156.00558,281.28984 C 156.01188,265.70495 157.0032,260.49393 160.11657,259.67977 C 161.30475,259.36905 161.90889,258.6616 161.52144,258.03468 C 161.05919,257.28675 159.79387,257.58231 157.56755,258.95825 C 154.34874,260.94759 154.26431,260.94954 152.56703,259.07406 C 151.13623,257.49305 151.04687,256.78095 152.04519,254.91555 C 152.98671,253.15632 152.97425,249.65201 151.98814,238.87032 C 151.29423,231.28339 150.95847,223.34632 151.242,221.23239 C 151.5681,218.8012 151.25089,216.69602 150.37876,215.50331 C 149.56038,214.38411 149,211.11422 149,207.45809 C 149,204.07029 148.50321,199.87335 147.89602,198.13157 C 146.09181,192.95602 147.34166,190.4749 152.73834,188.51897 C 155.35725,187.56979 159.3,186.56863 161.5,186.29417 C 163.7,186.01971 165.88931,185.42944 166.36512,184.98245 C 166.84625,184.53048 166.45945,182.15146 165.49366,179.62258 C 164.53855,177.12164 164.01146,174.41252 164.32237,173.60231 C 164.63327,172.79211 164.38325,171.96108 163.76677,171.75559 C 163.0506,171.51687 162.97161,170.86169 163.54799,169.94098 C 164.04414,169.14844 164.31399,167.67391 164.14766,166.66425 C 163.98132,165.65459 164.51402,164.07959 165.33144,163.16425 C 166.14886,162.24891 166.97118,160.375 167.15882,159 C 167.4563,156.82021 168.06681,156.45952 171.92527,156.18394 C 174.35917,156.0101 177.2718,155.2226 178.39778,154.43394 C 181.60722,152.18596 183.66558,152.72282 185.93868,156.40078 C 187.97705,159.69893 190.72167,161.61167 191.82815,160.50518 C 192.12619,160.20714 190.6689,158.22116 188.58973,156.09189 C 184.94775,152.36217 184.86747,152.1319 186.39577,149.79941 C 188.33232,146.84387 194.93541,143 198.07596,143 C 199.34297,143 203.05714,143.55303 206.32967,144.22896 C 211.84955,145.36908 212.62793,145.88826 217.09584,151.41009 C 222.822,158.48695 226.04429,169.61852 222.92479,171.54648 C 222.23203,171.97463 222.59956,173.0093 223.95811,174.45541 C 226.43543,177.0924 225.21218,178.62051 220.78341,178.42129 C 219.28928,178.35408 218.27367,178.63379 218.5265,179.04287 C 218.77932,179.45195 217.91605,180.05524 216.6081,180.38351 C 214.69093,180.86469 214.09896,181.85443 213.55374,185.49018 C 213.01297,189.09632 212.47936,190 210.89076,190 C 208.84637,190 204.08785,194.60857 204.0316,196.64301 C 203.97585,198.65948 201.36267,198.88728 196.07338,197.33678 C 192.01316,196.14656 190.60572,196.08233 189.45795,197.0349 C 187.26571,198.85429 187.59101,199.5843 192.66383,204.2294 C 202.78568,213.49781 204,214.79177 204,216.30906 C 204,217.17416 203.54835,218.1611 202.99633,218.50227 C 202.44431,218.84343 202.25746,220.17761 202.5811,221.4671 C 202.92775,222.84826 202.50977,224.81856 201.56386,226.26219 C 200.44173,227.97478 200.21481,229.40648 200.81034,231.01635 C 201.64765,233.2798 201.68722,233.28559 203.08125,231.34876 C 205.20158,228.40283 206.73661,227.78867 208.97933,228.98894 C 211.27361,230.2168 211.72189,228.844 209.60134,227.0841 C 208.48467,226.15735 208.43146,225.31719 209.33743,222.917 C 210.33171,220.28286 210.11639,219.25295 207.59812,214.5976 C 205.3124,210.37215 204.86006,208.55946 205.38849,205.74273 C 205.75393,203.79476 206.71602,201.65065 207.52646,200.97804 C 208.33691,200.30543 209,199.20648 209,198.53594 C 209,197.76774 210.66456,197.29161 213.5,197.24874 C 216.86785,197.19783 218,197.55892 218,198.68398 C 218,199.51077 218.9,200.42259 220,200.71025 C 221.1,200.99791 222,201.57453 222,201.99163 C 222,202.40873 223.27112,203.00422 224.82472,203.31494 C 226.95416,203.74083 228.02633,204.83936 229.18065,207.77796 C 230.68221,211.60058 230.64689,211.79812 227.35593,217.98283 C 225.51017,221.45156 224,225.26344 224,226.45368 C 224,227.64391 223.33931,229.49125 222.5318,230.55887 C 220.88431,232.73705 220.56008,236.1144 221.86064,237.55 C 222.89378,238.69042 232,255.64196 232,256.42477 C 232,256.72638 230.39179,257.64511 228.4262,258.46639 C 225.75715,259.58159 224.99156,260.40776 225.40207,261.72981 C 225.82263,263.08425 224.62109,264.23423 220.28616,266.62622 L 214.6206,269.75244 L 217.77142,271.3818 C 219.50437,272.27794 223.97723,273.65562 227.71112,274.4433 C 234.49315,275.87401 250.38787,281.61492 257,285.02195 C 261.84838,287.52018 268.98815,293.83864 270.0152,296.53997 C 271.14138,299.50205 268.67971,311.22417 266.18443,314.78155 C 265.13568,316.2767 263.70372,319.3 263.00229,321.5 C 261.24202,327.021 257.47108,334.36415 255.59772,335.9189 C 254.36642,336.94079 252.70658,336.98007 247.6878,336.10609 C 244.1944,335.49774 240.11084,335 238.61322,335 C 232.98643,335 216,348.9264 216,353.53954 C 216,357.94756 219.24148,361.89049 224.75,364.18306 C 227.6375,365.38479 230,366.96022 230,367.68401 C 230,368.72582 233.95856,369 249,369 L 268,369 L 268,357.46016 C 268,348.15614 268.36371,345.20149 269.87724,342.21016 C 273.05528,335.92909 274.30009,325.64666 273.72328,310.44082 C 273.2124,296.9727 273.28142,296.3221 275.7591,291.25327 C 277.38962,287.91754 279.63061,285.18595 281.91186,283.75356 C 285.36363,281.58619 286.37092,281.50056 308.41562,281.50028 C 325.85846,281.50007 331.431,281.20147 331.74895,280.25 C 331.9787,279.5625 332.77961,279 333.52877,279 C 334.27792,279 335.57447,277.7625 336.40997,276.25 C 340.19431,269.39932 341.95774,265.34428 341.97804,263.44617 C 342.02622,258.94013 354.1481,251 360.97911,251 C 364.507,251 378.05726,257.36058 380.79348,260.30099 C 383.39696,263.09876 382.70462,267.49221 379.30974,269.71662 C 377.97115,270.5937 375.72921,273.60376 374.32766,276.40565 C 372.92611,279.20754 371.01334,282.4 370.07706,283.5 C 369.14078,284.6 367.56297,288.18096 366.5708,291.45768 C 365.53678,294.87266 363.62247,298.5004 362.08547,299.95768 C 360.5268,301.4355 358.4764,305.35231 357.18853,309.31211 C 355.805,313.56609 353.10044,318.59783 349.9865,322.71124 C 347.24393,326.3341 345,330.02223 345,330.90709 C 345,331.79194 343.82514,334.72288 342.3892,337.42029 C 340.08275,341.75294 339.85621,343.03432 340.44591,348.41233 C 340.81305,351.76055 341.84699,357.58061 342.74357,361.34579 C 344.05408,366.8493 344.84002,368.36888 346.75196,369.09579 C 348.05999,369.59311 360.15579,370 373.63152,370 L 398.13284,370 L 397.81642,372.75 L 397.5,375.5 L 200.25,375.75249 L 3,376.00497 L 3,373.00249 z M 72,364.5 C 72.275,361.75 73.259834,358.375 74.18852,357 C 76.735092,353.22958 78.391753,338.57086 77.075808,331.45226 C 76.484114,328.25149 76,324.19658 76,322.44134 C 76,319.66704 75.59163,319.16833 72.875,318.625 C 71.15625,318.28125 65.64375,318.01755 60.625,318.039 L 51.5,318.078 L 48.209393,322.55083 C 41.683649,331.42108 38,342.98266 38,354.59424 C 38,361.49684 38.217924,362.28996 40.75,364.60271 C 42.2625,365.9842 44.171433,367.77638 44.992073,368.58533 C 46.178151,369.7545 49.049282,369.99911 58.992073,369.77807 L 71.5,369.5 L 72,364.5 z M 121.21782,369.44884 C 121.52096,369.14571 120.96401,366.77918 119.98016,364.18989 C 118.76519,360.99237 118.36051,357.98119 118.71868,354.80347 C 119.03471,351.99965 118.56437,347.34326 117.54493,343.18333 C 116.60932,339.3655 115.99146,334.94991 116.17191,333.37091 C 116.4848,330.63298 116.75893,330.48633 122.0901,330.20487 C 126.18614,329.98861 128.02293,330.3227 128.96254,331.45487 C 129.66783,332.30469 130.63979,333 131.12244,333 C 131.61836,333 132,299.03036 132,254.88871 L 132,176.77742 L 128.25,177.4782 C 126.1875,177.86362 124.05,178.52665 123.5,178.9516 C 122.95,179.37654 121.18665,180.03888 119.58144,180.42347 C 117.97624,180.80805 115.72624,181.80918 114.58144,182.6482 C 112.58614,184.11055 112.62976,184.14714 115.63553,183.53253 L 118.77105,182.89137 L 119.44668,208.69569 C 119.81828,222.88806 120.53911,248 121.04852,264.5 C 122.45742,310.13428 122.57428,307.60415 119,308.85016 C 116.56784,309.69801 116,310.46247 116,312.88896 C 116,314.53511 115.58902,316.13596 115.08672,316.44641 C 114.58441,316.75685 110.77405,317.2982 106.61926,317.64941 L 99.065085,318.28797 L 97.574234,322.89399 C 94.151315,333.46917 92,343.75852 92,349.55456 C 92,355.73024 92.00168,355.73376 96.704596,359.39777 C 99.292124,361.41369 103.81183,363.76155 106.74839,364.61523 C 109.68494,365.46891 112.62612,367.02972 113.28434,368.08369 C 114.41069,369.88727 119.84439,370.82228 121.21782,369.44884 z M 167.81955,366.85013 C 167.49373,364.65807 163.51046,362.12882 148.30648,354.45998 C 138.08784,349.30574 137.56424,349.5795 137.21107,360.26125 L 136.92213,369 L 152.53062,369 C 167.93423,369 168.13491,368.97178 167.81955,366.85013 z M 297.00741,366.25 C 294.59621,358.15245 291.99387,344.9136 291.99673,340.75924 L 292,336.01849 L 286.94446,339.12919 C 280.99875,342.78763 279.70482,344.56549 276.44301,353.55825 C 274.09667,360.02707 273.2664,366.93306 274.66667,368.33333 C 275.03333,368.7 280.39424,369 286.5798,369 L 297.82627,369 L 297.00741,366.25 z M 327.59987,364.75 C 325.39988,350.65749 324.94574,345.5427 325.15647,337.23125 C 325.41296,327.1151 324.91359,326.12749 318.79001,324.64018 C 316.66307,324.12359 315.83997,324.4305 314.96431,326.06668 C 314.35068,327.21327 313.18667,328.90483 312.37764,329.82569 C 311.5686,330.74656 309.09222,333.975 306.87455,337 L 302.84244,342.5 L 303.23422,353.71462 C 303.76366,368.86989 303.88753,369 317.78666,369 L 328.26334,369 L 327.59987,364.75 z M 336.4753,363.75 C 335.57348,358.27859 334.07337,355.42598 334.03041,359.10078 C 333.99857,361.82395 335.84135,368 336.68572,368 C 336.95526,368 336.86057,366.0875 336.4753,363.75 z M 131.9682,361.75 C 131.93861,357.79589 131.83418,357.63514 130.4682,359.44113 C 128.53605,361.99566 128.55546,366 130.5,366 C 131.60303,366 131.99158,364.87525 131.9682,361.75 z M 192.1849,302.08997 C 195.23173,300.89232 201.81966,294.51297 205.18652,289.5 C 208.67681,284.30327 212.22438,275.17207 211.32098,273.71034 C 210.92713,273.07307 210.07476,274.67925 209.39711,277.33564 C 206.76041,287.67148 195.25127,301 188.963,301 C 187.33335,301 186,301.45 186,302 C 186,303.2477 189.12403,303.29315 192.1849,302.08997 z M 204.92061,277.59577 C 206.25195,276.17243 207.13488,274.80155 206.88269,274.54935 C 206.63049,274.29716 204.71266,275.9082 202.62083,278.12943 C 200.529,280.35066 199.64606,281.72155 200.65875,281.17584 C 201.67144,280.63013 203.58927,279.0191 204.92061,277.59577 z M 356.27044,265.25394 C 359.3959,261.86393 357.77738,261.57915 354.5472,264.95073 C 352.51943,267.06727 351.95803,268.38298 352.52486,269.6903 C 353.25827,271.3818 353.33859,271.36938 353.75459,269.5 C 353.99938,268.4 355.13151,266.48927 356.27044,265.25394 z M 55,257.19046 C 55,255.17349 52.984427,256.99794 50.600142,261.17312 L 48.700283,264.5 L 51.850142,261.56291 C 53.582564,259.94751 55,257.97991 55,257.19046 z M 169,261 C 169,260.45 167.84844,260 166.44098,260 C 164.98962,260 164.14948,260.43284 164.5,261 C 164.83992,261.55 165.99148,262 167.05902,262 C 168.12656,262 169,261.55 169,261 z M 368,260 C 368,259.45 367.55,259 367,259 C 366.45,259 366,259.45 366,260 C 366,260.55 366.45,261 367,261 C 367.55,261 368,260.55 368,260 z M 197,239.82874 C 197,238.63455 197.7875,236.7298 198.75,235.59597 C 200.43219,233.61435 200.42844,233.59009 198.65322,234.97 C 197.02762,236.2336 196.69232,236.2016 195.85353,234.70276 C 195.32943,233.76624 193.91048,233.00663 192.70031,233.01474 C 190.58491,233.02891 190.59648,233.07933 193,234.3211 C 194.93921,235.32299 195.46692,236.32911 195.35255,238.80636 C 195.27146,240.56286 195.60896,242 196.10255,242 C 196.59615,242 197,241.02293 197,239.82874 z M 189.12207,231.325 C 188.25052,229.82623 188.05538,229.78303 188.03041,231.08333 C 187.99807,232.76741 189.0496,234.28373 189.75833,233.575 C 189.99208,233.34125 189.70576,232.32875 189.12207,231.325 z M 187.10631,219.95316 L 186.12677,217.5 L 186.06339,220.16821 C 186.02852,221.63573 186.33344,223.66073 186.74097,224.66821 C 187.42869,226.36837 187.50364,226.35292 187.7839,224.45316 C 187.94998,223.32739 187.64506,221.30239 187.10631,219.95316 z M 184.00175,213.00327 C 182.97552,211.08574 176.19558,207 174.03984,207 C 173.46793,207 173,207.45 173,208 C 173,208.55 173.81984,209 174.82186,209 C 175.82388,209 178.41138,210.33748 180.57186,211.97218 C 185.26613,215.52405 185.36707,215.55439 184.00175,213.00327 z M 216,171.04531 C 216,169.94698 209.20898,168.45769 208.30819,169.35848 C 207.60583,170.06084 211.7175,171.84488 214.25,171.93661 C 215.2125,171.97148 216,171.57039 216,171.04531 z M 79.5,168 C 79.160081,167.45 78.008524,167 76.940983,167 C 75.873442,167 75,167.45 75,168 C 75,168.55 76.151558,169 77.559017,169 C 79.010384,169 79.850523,168.56716 79.5,168 z M 197,163 C 197,162.45 196.55,162 196,162 C 195.45,162 195,162.45 195,163 C 195,163.55 195.45,164 196,164 C 196.55,164 197,163.55 197,163 z M 118.24619,141.14119 C 118.00967,138.21385 118.21391,137.99896 121.24619,137.98469 C 123.61521,137.97354 124.10492,137.71945 123.0471,137.05027 C 122.248,136.54476 120.3641,136.37718 118.86065,136.67787 C 116.58731,137.13254 115.4652,136.50773 112.19531,132.96646 C 109.74245,130.31003 108.43747,128.04311 108.72599,126.9398 C 109.00688,125.86571 108.41182,124.75559 107.21062,124.11272 C 106.12279,123.53053 104.95319,121.564 104.6115,119.74264 C 103.74384,115.11762 101.75967,112.63524 96.437557,109.51627 C 91.938518,106.87966 87,106.62944 87,109.0381 C 87,109.5881 88.025651,109.78068 89.279225,109.46605 C 92.035957,108.77416 100.68271,113.31207 101.36375,115.80815 C 101.61764,116.73867 102.10529,119.16214 102.44742,121.19364 C 102.86551,123.67617 103.72757,125.09615 105.07653,125.52429 C 106.43106,125.9542 106.90162,126.73462 106.52389,127.92473 C 106.13028,129.16488 107.31149,130.8366 110.50455,133.55836 C 113.96554,136.50851 115.19027,138.33771 115.65644,141.25295 C 116.38557,145.81268 118.61587,145.71643 118.24619,141.14119 z M 106.22583,62.003738 C 108.02662,60.905794 110.48594,60.005794 111.69098,60.003738 C 112.89602,60.001682 114.20349,59.479756 114.59647,58.843902 C 115.10612,58.019271 114.42151,57.865699 112.20865,58.30827 C 107.54284,59.241432 102,61.761126 102,62.948973 C 102,64.39815 102.47168,64.292644 106.22583,62.003738 z"
     id="path2451" />
</svg>
